<mxfile host="app.diagrams.net" agent="Mozilla/5.0 (Windows NT 10.0; Win64; x64) AppleWebKit/537.36 (KHTML, like Gecko) Chrome/133.0.0.0 Safari/537.36" version="26.0.14">
  <diagram name="Page-1" id="HRTzrtGTbLIem9fTE12K">
    <mxGraphModel dx="2918" dy="1924" grid="1" gridSize="10" guides="1" tooltips="1" connect="1" arrows="1" fold="1" page="1" pageScale="1" pageWidth="850" pageHeight="1100" math="0" shadow="0">
      <root>
        <mxCell id="0" />
        <mxCell id="1" parent="0" />
        <UserObject label="" plantUmlData="{&#xa;  &quot;data&quot;: &quot;@startuml\nclass Utilisateur {\n  + id: int\n  + nom: string\n  + prenom: string\n  + email: string\n  + motDePasse: string\n  + rôle: string\n  + seConnecter(): void\n  + seDéconnecter(): void\n}\n\nclass Élève {\n  + dateNaissance: date\n  + classe: Classe\n  + parent: Parent\n  + notes: List&lt;Note&gt;\n  + présences: List&lt;Présence&gt;\n  + consulterBulletin(): void\n  + marquerPrésence(): void\n}\n\nclass Enseignant {\n  + matières: List&lt;Matière&gt;\n  + emploisDuTemps: List&lt;Cours&gt;\n  + ajouterNote(Élève, Note): void\n  + gérerEmploiDuTemps(): void\n}\n\nclass Administrateur {\n  + gérerUtilisateurs(): void\n  + gérerPaiements(): void\n  + gérerCours(): void\n  + envoyerNotifications(): void\n}\n\nclass Parent {\n  + enfants: List&lt;Élève&gt;\n  + consulterRésultats(): void\n  + recevoirNotifications(): void\n}\n\nclass Matière {\n  + id: int\n  + nom: string\n  + enseignant: Enseignant\n  + assignerEnseignant(): void\n}\n\nclass Cours {\n  + id: int\n  + matière: Matière\n  + enseignant: Enseignant\n  + classe: Classe\n  + horaire: datetime\n  + modifierHoraire(): void\n}\n\nclass Classe {\n  + id: int\n  + nom: string\n  + élèves: List&lt;Élève&gt;\n  + enseignants: List&lt;Enseignant&gt;\n  + gérerÉlèves(): void\n}\n\nclass Note {\n  + id: int\n  + élève: Élève\n  + matière: Matière\n  + valeur: float\n  + date: date\n  + générerBulletin(): void\n}\n\nclass Présence {\n  + id: int\n  + élève: Élève\n  + date: date\n  + statut: enum(Présent, Absent)\n  + enregistrerPrésence(): void\n}\n\nclass Paiement {\n  + id: int\n  + élève: Élève\n  + montant: float\n  + date: date\n  + statut: enum(Payé, En attente, En retard)\n  + générerFacture(): void\n  + envoyerRappel(): void\n}\n\nclass Notification {\n  + id: int\n  + destinataire: Utilisateur\n  + message: string\n  + date: datetime\n  + envoyerNotification(): void\n}\n\nclass Message {\n  + id: int\n  + expéditeur: Utilisateur\n  + destinataire: Utilisateur\n  + contenu: string\n  + date: datetime\n  + envoyerMessage(): void\n}\n\nUtilisateur &lt;|-- Élève\nUtilisateur &lt;|-- Enseignant\nUtilisateur &lt;|-- Administrateur\nUtilisateur &lt;|-- Parent\n\nParent \&quot;1\&quot; -- \&quot;0..*\&quot; Élève : suit &gt;\nÉlève \&quot;0..*\&quot; -- \&quot;1\&quot; Classe : appartient &gt;\nEnseignant \&quot;1\&quot; -- \&quot;0..*\&quot; Matière : enseigne &gt;\nMatière \&quot;1\&quot; -- \&quot;0..*\&quot; Cours : appartient &gt;\nCours \&quot;1\&quot; -- \&quot;0..*\&quot; Classe : dispenséDans &gt;\nÉlève \&quot;1\&quot; -- \&quot;0..*\&quot; Note : reçoit &gt;\nÉlève \&quot;1\&quot; -- \&quot;0..*\&quot; Présence : enregistre &gt;\nÉlève \&quot;1\&quot; -- \&quot;0..*\&quot; Paiement : effectue &gt;\nUtilisateur \&quot;1\&quot; -- \&quot;0..*\&quot; Notification : reçoit &gt;\nUtilisateur \&quot;1\&quot; -- \&quot;0..*\&quot; Message : envoie &gt;\nUtilisateur \&quot;1\&quot; -- \&quot;0..*\&quot; Message : reçoit &gt;\n\n@enduml\n&quot;,&#xa;  &quot;format&quot;: &quot;svg&quot;&#xa;}" id="matraqKjb4-Kx5nU5Ze3-1">
          <mxCell style="shape=image;noLabel=1;verticalAlign=top;aspect=fixed;imageAspect=0;image=data:image/svg+xml,PD94bWwgdmVyc2lvbj0iMS4wIiBlbmNvZGluZz0idXMtYXNjaWkiIHN0YW5kYWxvbmU9Im5vIj8+PHN2ZyB4bWxucz0iaHR0cDovL3d3dy53My5vcmcvMjAwMC9zdmciIHhtbG5zOnhsaW5rPSJodHRwOi8vd3d3LnczLm9yZy8xOTk5L3hsaW5rIiBjb250ZW50U3R5bGVUeXBlPSJ0ZXh0L2NzcyIgaGVpZ2h0PSIxMDQ4cHgiIHByZXNlcnZlQXNwZWN0UmF0aW89Im5vbmUiIHN0eWxlPSJ3aWR0aDoxNzExcHg7aGVpZ2h0OjEwNDhweDtiYWNrZ3JvdW5kOiNGRkZGRkY7IiB2ZXJzaW9uPSIxLjEiIHZpZXdCb3g9IjAgMCAxNzExIDEwNDgiIHdpZHRoPSIxNzExcHgiIHpvb21BbmRQYW49Im1hZ25pZnkiPjxkZWZzLz48Zz48IS0tY2xhc3MgVXRpbGlzYXRldXItLT48ZyBpZD0iZWxlbV9VdGlsaXNhdGV1ciI+PHJlY3QgY29kZUxpbmU9IjEiIGZpbGw9IiNGMUYxRjEiIGhlaWdodD0iMTY3Ljg3NSIgaWQ9IlV0aWxpc2F0ZXVyIiByeD0iMi41IiByeT0iMi41IiBzdHlsZT0ic3Ryb2tlOiMxODE4MTg7c3Ryb2tlLXdpZHRoOjAuNTsiIHdpZHRoPSIxNzUiIHg9IjEwMDkiIHk9IjciLz48ZWxsaXBzZSBjeD0iMTA1My43NSIgY3k9IjIzIiBmaWxsPSIjQUREMUIyIiByeD0iMTEiIHJ5PSIxMSIgc3R5bGU9InN0cm9rZTojMTgxODE4O3N0cm9rZS13aWR0aDoxLjA7Ii8+PHBhdGggZD0iTTEwNTEuMzc1LDI3LjI1IEwxMDUxLjM3NSwyOSBMMTA1Ni4zMTI1LDI5IEwxMDU2LjMxMjUsMjcuMjUgTDEwNTEuMzc1LDI3LjI1IFogTTEwNTIuMDYyNSwyNy45Mzc1IFExMDUyLjA2MjUsMjcuOTM3NSAxMDUyLjA2MjUsMTguNzUgTDEwNTAuMzEyNSwxOC43NSBRMTA1MC4zMTI1LDE4Ljc1IDEwNTAuMzEyNSwyNy45Mzc1IEwxMDUyLjA2MjUsMjcuOTM3NSBaIE0xMDU1LjYyNSwyNy45Mzc1IEwxMDU3LjM3NSwyNy45Mzc1IFExMDU3LjM3NSwyNy45Mzc1IDEwNTcuMzc1LDI1LjEyNSBMMTA1NS42MjUsMjUuMTI1IFExMDU1LjYyNSwyNS4xMjUgMTA1NS42MjUsMjcuOTM3NSBaIE0xMDU1LjYyNSwxOC43NSBRMTA1NS42MjUsMTguNzUgMTA1NS42MjUsMjEuNTYyNSBMMTA1Ny4zNzUsMjEuNTYyNSBRMTA1Ny4zNzUsMjEuNTYyNSAxMDU3LjM3NSwxOC43NSBMMTA1NS42MjUsMTguNzUgWiBNMTA1MS4zNzUsMTkuNDM3NSBMMTA1Ni4zMTI1LDE5LjQzNzUgTDEwNTYuMzEyNSwxNy42ODc1IEwxMDUxLjM3NSwxNy42ODc1IEwxMDUxLjM3NSwxOS40Mzc1IFogIiBmaWxsPSIjMDAwMDAwIi8+PHRleHQgZmlsbD0iIzAwMDAwMCIgZm9udC1mYW1pbHk9InNhbnMtc2VyaWYiIGZvbnQtc2l6ZT0iMTQiIGxlbmd0aEFkanVzdD0ic3BhY2luZyIgdGV4dExlbmd0aD0iNzciIHg9IjEwNzQuMjUiIHk9IjI4Ljc0MjIiPlV0aWxpc2F0ZXVyPC90ZXh0PjxsaW5lIHN0eWxlPSJzdHJva2U6IzE4MTgxODtzdHJva2Utd2lkdGg6MC41OyIgeDE9IjEwMTAiIHgyPSIxMTgzIiB5MT0iMzkiIHkyPSIzOSIvPjxlbGxpcHNlIGN4PSIxMDIwIiBjeT0iNTEuOTkyMiIgZmlsbD0ibm9uZSIgcng9IjMiIHJ5PSIzIiBzdHlsZT0ic3Ryb2tlOiMwMzgwNDg7c3Ryb2tlLXdpZHRoOjEuMDsiLz48dGV4dCBmaWxsPSIjMDAwMDAwIiBmb250LWZhbWlseT0ic2Fucy1zZXJpZiIgZm9udC1zaXplPSIxNCIgbGVuZ3RoQWRqdXN0PSJzcGFjaW5nIiB0ZXh0TGVuZ3RoPSI0OSIgeD0iMTAyOSIgeT0iNTYuMjM0NCI+aWQ6IGludDwvdGV4dD48ZWxsaXBzZSBjeD0iMTAyMCIgY3k9IjY2Ljk3NjYiIGZpbGw9Im5vbmUiIHJ4PSIzIiByeT0iMyIgc3R5bGU9InN0cm9rZTojMDM4MDQ4O3N0cm9rZS13aWR0aDoxLjA7Ii8+PHRleHQgZmlsbD0iIzAwMDAwMCIgZm9udC1mYW1pbHk9InNhbnMtc2VyaWYiIGZvbnQtc2l6ZT0iMTQiIGxlbmd0aEFkanVzdD0ic3BhY2luZyIgdGV4dExlbmd0aD0iNzgiIHg9IjEwMjkiIHk9IjcxLjIxODgiPm5vbTogc3RyaW5nPC90ZXh0PjxlbGxpcHNlIGN4PSIxMDIwIiBjeT0iODEuOTYwOSIgZmlsbD0ibm9uZSIgcng9IjMiIHJ5PSIzIiBzdHlsZT0ic3Ryb2tlOiMwMzgwNDg7c3Ryb2tlLXdpZHRoOjEuMDsiLz48dGV4dCBmaWxsPSIjMDAwMDAwIiBmb250LWZhbWlseT0ic2Fucy1zZXJpZiIgZm9udC1zaXplPSIxNCIgbGVuZ3RoQWRqdXN0PSJzcGFjaW5nIiB0ZXh0TGVuZ3RoPSI5OSIgeD0iMTAyOSIgeT0iODYuMjAzMSI+cHJlbm9tOiBzdHJpbmc8L3RleHQ+PGVsbGlwc2UgY3g9IjEwMjAiIGN5PSI5Ni45NDUzIiBmaWxsPSJub25lIiByeD0iMyIgcnk9IjMiIHN0eWxlPSJzdHJva2U6IzAzODA0ODtzdHJva2Utd2lkdGg6MS4wOyIvPjx0ZXh0IGZpbGw9IiMwMDAwMDAiIGZvbnQtZmFtaWx5PSJzYW5zLXNlcmlmIiBmb250LXNpemU9IjE0IiBsZW5ndGhBZGp1c3Q9InNwYWNpbmciIHRleHRMZW5ndGg9IjkyIiB4PSIxMDI5IiB5PSIxMDEuMTg3NSI+ZW1haWw6IHN0cmluZzwvdGV4dD48ZWxsaXBzZSBjeD0iMTAyMCIgY3k9IjExMS45Mjk3IiBmaWxsPSJub25lIiByeD0iMyIgcnk9IjMiIHN0eWxlPSJzdHJva2U6IzAzODA0ODtzdHJva2Utd2lkdGg6MS4wOyIvPjx0ZXh0IGZpbGw9IiMwMDAwMDAiIGZvbnQtZmFtaWx5PSJzYW5zLXNlcmlmIiBmb250LXNpemU9IjE0IiBsZW5ndGhBZGp1c3Q9InNwYWNpbmciIHRleHRMZW5ndGg9IjEyNyIgeD0iMTAyOSIgeT0iMTE2LjE3MTkiPm1vdERlUGFzc2U6IHN0cmluZzwvdGV4dD48ZWxsaXBzZSBjeD0iMTAyMCIgY3k9IjEyNi45MTQxIiBmaWxsPSJub25lIiByeD0iMyIgcnk9IjMiIHN0eWxlPSJzdHJva2U6IzAzODA0ODtzdHJva2Utd2lkdGg6MS4wOyIvPjx0ZXh0IGZpbGw9IiMwMDAwMDAiIGZvbnQtZmFtaWx5PSJzYW5zLXNlcmlmIiBmb250LXNpemU9IjE0IiBsZW5ndGhBZGp1c3Q9InNwYWNpbmciIHRleHRMZW5ndGg9Ijg0IiB4PSIxMDI5IiB5PSIxMzEuMTU2MyI+ciYjMjQ0O2xlOiBzdHJpbmc8L3RleHQ+PGxpbmUgc3R5bGU9InN0cm9rZTojMTgxODE4O3N0cm9rZS13aWR0aDowLjU7IiB4MT0iMTAxMCIgeDI9IjExODMiIHkxPSIxMzYuOTA2MyIgeTI9IjEzNi45MDYzIi8+PGVsbGlwc2UgY3g9IjEwMjAiIGN5PSIxNDkuODk4NCIgZmlsbD0iIzg0QkU4NCIgcng9IjMiIHJ5PSIzIiBzdHlsZT0ic3Ryb2tlOiMwMzgwNDg7c3Ryb2tlLXdpZHRoOjEuMDsiLz48dGV4dCBmaWxsPSIjMDAwMDAwIiBmb250LWZhbWlseT0ic2Fucy1zZXJpZiIgZm9udC1zaXplPSIxNCIgbGVuZ3RoQWRqdXN0PSJzcGFjaW5nIiB0ZXh0TGVuZ3RoPSIxMzUiIHg9IjEwMjkiIHk9IjE1NC4xNDA2Ij5zZUNvbm5lY3RlcigpOiB2b2lkPC90ZXh0PjxlbGxpcHNlIGN4PSIxMDIwIiBjeT0iMTY0Ljg4MjgiIGZpbGw9IiM4NEJFODQiIHJ4PSIzIiByeT0iMyIgc3R5bGU9InN0cm9rZTojMDM4MDQ4O3N0cm9rZS13aWR0aDoxLjA7Ii8+PHRleHQgZmlsbD0iIzAwMDAwMCIgZm9udC1mYW1pbHk9InNhbnMtc2VyaWYiIGZvbnQtc2l6ZT0iMTQiIGxlbmd0aEFkanVzdD0ic3BhY2luZyIgdGV4dExlbmd0aD0iMTQ5IiB4PSIxMDI5IiB5PSIxNjkuMTI1Ij5zZUQmIzIzMztjb25uZWN0ZXIoKTogdm9pZDwvdGV4dD48L2c+PCEtLWNsYXNzID9sP3ZlLS0+PGcgaWQ9ImVsZW1fJiMyMDE7bCYjMjMyO3ZlIj48cmVjdCBjb2RlTGluZT0iMTIiIGZpbGw9IiNGMUYxRjEiIGhlaWdodD0iMTUyLjg5MDYiIGlkPSImIzIwMTtsJiMyMzI7dmUiIHJ4PSIyLjUiIHJ5PSIyLjUiIHN0eWxlPSJzdHJva2U6IzE4MTgxODtzdHJva2Utd2lkdGg6MC41OyIgd2lkdGg9IjIwMyIgeD0iMzgxIiB5PSI0NjMiLz48ZWxsaXBzZSBjeD0iNDYwLjc1IiBjeT0iNDc5IiBmaWxsPSIjQUREMUIyIiByeD0iMTEiIHJ5PSIxMSIgc3R5bGU9InN0cm9rZTojMTgxODE4O3N0cm9rZS13aWR0aDoxLjA7Ii8+PHBhdGggZD0iTTQ1OC4zNzUsNDgzLjI1IEw0NTguMzc1LDQ4NSBMNDYzLjMxMjUsNDg1IEw0NjMuMzEyNSw0ODMuMjUgTDQ1OC4zNzUsNDgzLjI1IFogTTQ1OS4wNjI1LDQ4My45Mzc1IFE0NTkuMDYyNSw0ODMuOTM3NSA0NTkuMDYyNSw0NzQuNzUgTDQ1Ny4zMTI1LDQ3NC43NSBRNDU3LjMxMjUsNDc0Ljc1IDQ1Ny4zMTI1LDQ4My45Mzc1IEw0NTkuMDYyNSw0ODMuOTM3NSBaIE00NjIuNjI1LDQ4My45Mzc1IEw0NjQuMzc1LDQ4My45Mzc1IFE0NjQuMzc1LDQ4My45Mzc1IDQ2NC4zNzUsNDgxLjEyNSBMNDYyLjYyNSw0ODEuMTI1IFE0NjIuNjI1LDQ4MS4xMjUgNDYyLjYyNSw0ODMuOTM3NSBaIE00NjIuNjI1LDQ3NC43NSBRNDYyLjYyNSw0NzQuNzUgNDYyLjYyNSw0NzcuNTYyNSBMNDY0LjM3NSw0NzcuNTYyNSBRNDY0LjM3NSw0NzcuNTYyNSA0NjQuMzc1LDQ3NC43NSBMNDYyLjYyNSw0NzQuNzUgWiBNNDU4LjM3NSw0NzUuNDM3NSBMNDYzLjMxMjUsNDc1LjQzNzUgTDQ2My4zMTI1LDQ3My42ODc1IEw0NTguMzc1LDQ3My42ODc1IEw0NTguMzc1LDQ3NS40Mzc1IFogIiBmaWxsPSIjMDAwMDAwIi8+PHRleHQgZmlsbD0iIzAwMDAwMCIgZm9udC1mYW1pbHk9InNhbnMtc2VyaWYiIGZvbnQtc2l6ZT0iMTQiIGxlbmd0aEFkanVzdD0ic3BhY2luZyIgdGV4dExlbmd0aD0iMzUiIHg9IjQ4MS4yNSIgeT0iNDg0Ljc0MjIiPiYjMjAxO2wmIzIzMjt2ZTwvdGV4dD48bGluZSBzdHlsZT0ic3Ryb2tlOiMxODE4MTg7c3Ryb2tlLXdpZHRoOjAuNTsiIHgxPSIzODIiIHgyPSI1ODMiIHkxPSI0OTUiIHkyPSI0OTUiLz48ZWxsaXBzZSBjeD0iMzkyIiBjeT0iNTA3Ljk5MjIiIGZpbGw9Im5vbmUiIHJ4PSIzIiByeT0iMyIgc3R5bGU9InN0cm9rZTojMDM4MDQ4O3N0cm9rZS13aWR0aDoxLjA7Ii8+PHRleHQgZmlsbD0iIzAwMDAwMCIgZm9udC1mYW1pbHk9InNhbnMtc2VyaWYiIGZvbnQtc2l6ZT0iMTQiIGxlbmd0aEFkanVzdD0ic3BhY2luZyIgdGV4dExlbmd0aD0iMTMzIiB4PSI0MDEiIHk9IjUxMi4yMzQ0Ij5kYXRlTmFpc3NhbmNlOiBkYXRlPC90ZXh0PjxlbGxpcHNlIGN4PSIzOTIiIGN5PSI1MjIuOTc2NiIgZmlsbD0ibm9uZSIgcng9IjMiIHJ5PSIzIiBzdHlsZT0ic3Ryb2tlOiMwMzgwNDg7c3Ryb2tlLXdpZHRoOjEuMDsiLz48dGV4dCBmaWxsPSIjMDAwMDAwIiBmb250LWZhbWlseT0ic2Fucy1zZXJpZiIgZm9udC1zaXplPSIxNCIgbGVuZ3RoQWRqdXN0PSJzcGFjaW5nIiB0ZXh0TGVuZ3RoPSI5OCIgeD0iNDAxIiB5PSI1MjcuMjE4OCI+Y2xhc3NlOiBDbGFzc2U8L3RleHQ+PGVsbGlwc2UgY3g9IjM5MiIgY3k9IjUzNy45NjA5IiBmaWxsPSJub25lIiByeD0iMyIgcnk9IjMiIHN0eWxlPSJzdHJva2U6IzAzODA0ODtzdHJva2Utd2lkdGg6MS4wOyIvPjx0ZXh0IGZpbGw9IiMwMDAwMDAiIGZvbnQtZmFtaWx5PSJzYW5zLXNlcmlmIiBmb250LXNpemU9IjE0IiBsZW5ndGhBZGp1c3Q9InNwYWNpbmciIHRleHRMZW5ndGg9Ijk4IiB4PSI0MDEiIHk9IjU0Mi4yMDMxIj5wYXJlbnQ6IFBhcmVudDwvdGV4dD48ZWxsaXBzZSBjeD0iMzkyIiBjeT0iNTUyLjk0NTMiIGZpbGw9Im5vbmUiIHJ4PSIzIiByeT0iMyIgc3R5bGU9InN0cm9rZTojMDM4MDQ4O3N0cm9rZS13aWR0aDoxLjA7Ii8+PHRleHQgZmlsbD0iIzAwMDAwMCIgZm9udC1mYW1pbHk9InNhbnMtc2VyaWYiIGZvbnQtc2l6ZT0iMTQiIGxlbmd0aEFkanVzdD0ic3BhY2luZyIgdGV4dExlbmd0aD0iMTE5IiB4PSI0MDEiIHk9IjU1Ny4xODc1Ij5ub3RlczogTGlzdCZsdDtOb3RlJmd0OzwvdGV4dD48ZWxsaXBzZSBjeD0iMzkyIiBjeT0iNTY3LjkyOTciIGZpbGw9Im5vbmUiIHJ4PSIzIiByeT0iMyIgc3R5bGU9InN0cm9rZTojMDM4MDQ4O3N0cm9rZS13aWR0aDoxLjA7Ii8+PHRleHQgZmlsbD0iIzAwMDAwMCIgZm9udC1mYW1pbHk9InNhbnMtc2VyaWYiIGZvbnQtc2l6ZT0iMTQiIGxlbmd0aEFkanVzdD0ic3BhY2luZyIgdGV4dExlbmd0aD0iMTc1IiB4PSI0MDEiIHk9IjU3Mi4xNzE5Ij5wciYjMjMzO3NlbmNlczogTGlzdCZsdDtQciYjMjMzO3NlbmNlJmd0OzwvdGV4dD48bGluZSBzdHlsZT0ic3Ryb2tlOiMxODE4MTg7c3Ryb2tlLXdpZHRoOjAuNTsiIHgxPSIzODIiIHgyPSI1ODMiIHkxPSI1NzcuOTIxOSIgeTI9IjU3Ny45MjE5Ii8+PGVsbGlwc2UgY3g9IjM5MiIgY3k9IjU5MC45MTQxIiBmaWxsPSIjODRCRTg0IiByeD0iMyIgcnk9IjMiIHN0eWxlPSJzdHJva2U6IzAzODA0ODtzdHJva2Utd2lkdGg6MS4wOyIvPjx0ZXh0IGZpbGw9IiMwMDAwMDAiIGZvbnQtZmFtaWx5PSJzYW5zLXNlcmlmIiBmb250LXNpemU9IjE0IiBsZW5ndGhBZGp1c3Q9InNwYWNpbmciIHRleHRMZW5ndGg9IjE3NyIgeD0iNDAxIiB5PSI1OTUuMTU2MyI+Y29uc3VsdGVyQnVsbGV0aW4oKTogdm9pZDwvdGV4dD48ZWxsaXBzZSBjeD0iMzkyIiBjeT0iNjA1Ljg5ODQiIGZpbGw9IiM4NEJFODQiIHJ4PSIzIiByeT0iMyIgc3R5bGU9InN0cm9rZTojMDM4MDQ4O3N0cm9rZS13aWR0aDoxLjA7Ii8+PHRleHQgZmlsbD0iIzAwMDAwMCIgZm9udC1mYW1pbHk9InNhbnMtc2VyaWYiIGZvbnQtc2l6ZT0iMTQiIGxlbmd0aEFkanVzdD0ic3BhY2luZyIgdGV4dExlbmd0aD0iMTY0IiB4PSI0MDEiIHk9IjYxMC4xNDA2Ij5tYXJxdWVyUHImIzIzMztzZW5jZSgpOiB2b2lkPC90ZXh0PjwvZz48IS0tY2xhc3MgRW5zZWlnbmFudC0tPjxnIGlkPSJlbGVtX0Vuc2VpZ25hbnQiPjxyZWN0IGNvZGVMaW5lPSIyMiIgZmlsbD0iI0YxRjFGMSIgaGVpZ2h0PSIxMDcuOTM3NSIgaWQ9IkVuc2VpZ25hbnQiIHJ4PSIyLjUiIHJ5PSIyLjUiIHN0eWxlPSJzdHJva2U6IzE4MTgxODtzdHJva2Utd2lkdGg6MC41OyIgd2lkdGg9IjIzOCIgeD0iOTc3LjUiIHk9IjI2NSIvPjxlbGxpcHNlIGN4PSIxMDU3LjI1IiBjeT0iMjgxIiBmaWxsPSIjQUREMUIyIiByeD0iMTEiIHJ5PSIxMSIgc3R5bGU9InN0cm9rZTojMTgxODE4O3N0cm9rZS13aWR0aDoxLjA7Ii8+PHBhdGggZD0iTTEwNTQuODc1LDI4NS4yNSBMMTA1NC44NzUsMjg3IEwxMDU5LjgxMjUsMjg3IEwxMDU5LjgxMjUsMjg1LjI1IEwxMDU0Ljg3NSwyODUuMjUgWiBNMTA1NS41NjI1LDI4NS45Mzc1IFExMDU1LjU2MjUsMjg1LjkzNzUgMTA1NS41NjI1LDI3Ni43NSBMMTA1My44MTI1LDI3Ni43NSBRMTA1My44MTI1LDI3Ni43NSAxMDUzLjgxMjUsMjg1LjkzNzUgTDEwNTUuNTYyNSwyODUuOTM3NSBaIE0xMDU5LjEyNSwyODUuOTM3NSBMMTA2MC44NzUsMjg1LjkzNzUgUTEwNjAuODc1LDI4NS45Mzc1IDEwNjAuODc1LDI4My4xMjUgTDEwNTkuMTI1LDI4My4xMjUgUTEwNTkuMTI1LDI4My4xMjUgMTA1OS4xMjUsMjg1LjkzNzUgWiBNMTA1OS4xMjUsMjc2Ljc1IFExMDU5LjEyNSwyNzYuNzUgMTA1OS4xMjUsMjc5LjU2MjUgTDEwNjAuODc1LDI3OS41NjI1IFExMDYwLjg3NSwyNzkuNTYyNSAxMDYwLjg3NSwyNzYuNzUgTDEwNTkuMTI1LDI3Ni43NSBaIE0xMDU0Ljg3NSwyNzcuNDM3NSBMMTA1OS44MTI1LDI3Ny40Mzc1IEwxMDU5LjgxMjUsMjc1LjY4NzUgTDEwNTQuODc1LDI3NS42ODc1IEwxMDU0Ljg3NSwyNzcuNDM3NSBaICIgZmlsbD0iIzAwMDAwMCIvPjx0ZXh0IGZpbGw9IiMwMDAwMDAiIGZvbnQtZmFtaWx5PSJzYW5zLXNlcmlmIiBmb250LXNpemU9IjE0IiBsZW5ndGhBZGp1c3Q9InNwYWNpbmciIHRleHRMZW5ndGg9IjcwIiB4PSIxMDc3Ljc1IiB5PSIyODYuNzQyMiI+RW5zZWlnbmFudDwvdGV4dD48bGluZSBzdHlsZT0ic3Ryb2tlOiMxODE4MTg7c3Ryb2tlLXdpZHRoOjAuNTsiIHgxPSI5NzguNSIgeDI9IjEyMTQuNSIgeTE9IjI5NyIgeTI9IjI5NyIvPjxlbGxpcHNlIGN4PSI5ODguNSIgY3k9IjMwOS45OTIyIiBmaWxsPSJub25lIiByeD0iMyIgcnk9IjMiIHN0eWxlPSJzdHJva2U6IzAzODA0ODtzdHJva2Utd2lkdGg6MS4wOyIvPjx0ZXh0IGZpbGw9IiMwMDAwMDAiIGZvbnQtZmFtaWx5PSJzYW5zLXNlcmlmIiBmb250LXNpemU9IjE0IiBsZW5ndGhBZGp1c3Q9InNwYWNpbmciIHRleHRMZW5ndGg9IjE2MiIgeD0iOTk3LjUiIHk9IjMxNC4yMzQ0Ij5tYXRpJiMyMzI7cmVzOiBMaXN0Jmx0O01hdGkmIzIzMjtyZSZndDs8L3RleHQ+PGVsbGlwc2UgY3g9Ijk4OC41IiBjeT0iMzI0Ljk3NjYiIGZpbGw9Im5vbmUiIHJ4PSIzIiByeT0iMyIgc3R5bGU9InN0cm9rZTojMDM4MDQ4O3N0cm9rZS13aWR0aDoxLjA7Ii8+PHRleHQgZmlsbD0iIzAwMDAwMCIgZm9udC1mYW1pbHk9InNhbnMtc2VyaWYiIGZvbnQtc2l6ZT0iMTQiIGxlbmd0aEFkanVzdD0ic3BhY2luZyIgdGV4dExlbmd0aD0iMTkxIiB4PSI5OTcuNSIgeT0iMzI5LjIxODgiPmVtcGxvaXNEdVRlbXBzOiBMaXN0Jmx0O0NvdXJzJmd0OzwvdGV4dD48bGluZSBzdHlsZT0ic3Ryb2tlOiMxODE4MTg7c3Ryb2tlLXdpZHRoOjAuNTsiIHgxPSI5NzguNSIgeDI9IjEyMTQuNSIgeTE9IjMzNC45Njg4IiB5Mj0iMzM0Ljk2ODgiLz48ZWxsaXBzZSBjeD0iOTg4LjUiIGN5PSIzNDcuOTYwOSIgZmlsbD0iIzg0QkU4NCIgcng9IjMiIHJ5PSIzIiBzdHlsZT0ic3Ryb2tlOiMwMzgwNDg7c3Ryb2tlLXdpZHRoOjEuMDsiLz48dGV4dCBmaWxsPSIjMDAwMDAwIiBmb250LWZhbWlseT0ic2Fucy1zZXJpZiIgZm9udC1zaXplPSIxNCIgbGVuZ3RoQWRqdXN0PSJzcGFjaW5nIiB0ZXh0TGVuZ3RoPSIyMTIiIHg9Ijk5Ny41IiB5PSIzNTIuMjAzMSI+YWpvdXRlck5vdGUoJiMyMDE7bCYjMjMyO3ZlLCBOb3RlKTogdm9pZDwvdGV4dD48ZWxsaXBzZSBjeD0iOTg4LjUiIGN5PSIzNjIuOTQ1MyIgZmlsbD0iIzg0QkU4NCIgcng9IjMiIHJ5PSIzIiBzdHlsZT0ic3Ryb2tlOiMwMzgwNDg7c3Ryb2tlLXdpZHRoOjEuMDsiLz48dGV4dCBmaWxsPSIjMDAwMDAwIiBmb250LWZhbWlseT0ic2Fucy1zZXJpZiIgZm9udC1zaXplPSIxNCIgbGVuZ3RoQWRqdXN0PSJzcGFjaW5nIiB0ZXh0TGVuZ3RoPSIxODYiIHg9Ijk5Ny41IiB5PSIzNjcuMTg3NSI+ZyYjMjMzO3JlckVtcGxvaUR1VGVtcHMoKTogdm9pZDwvdGV4dD48L2c+PCEtLWNsYXNzIEFkbWluaXN0cmF0ZXVyLS0+PGcgaWQ9ImVsZW1fQWRtaW5pc3RyYXRldXIiPjxyZWN0IGNvZGVMaW5lPSIyOSIgZmlsbD0iI0YxRjFGMSIgaGVpZ2h0PSIxMDcuOTM3NSIgaWQ9IkFkbWluaXN0cmF0ZXVyIiByeD0iMi41IiByeT0iMi41IiBzdHlsZT0ic3Ryb2tlOiMxODE4MTg7c3Ryb2tlLXdpZHRoOjAuNTsiIHdpZHRoPSIyMjQiIHg9IjcxOC41IiB5PSIyNjUiLz48ZWxsaXBzZSBjeD0iNzc2Ljc1IiBjeT0iMjgxIiBmaWxsPSIjQUREMUIyIiByeD0iMTEiIHJ5PSIxMSIgc3R5bGU9InN0cm9rZTojMTgxODE4O3N0cm9rZS13aWR0aDoxLjA7Ii8+PHBhdGggZD0iTTc3NC4zNzUsMjg1LjI1IEw3NzQuMzc1LDI4NyBMNzc5LjMxMjUsMjg3IEw3NzkuMzEyNSwyODUuMjUgTDc3NC4zNzUsMjg1LjI1IFogTTc3NS4wNjI1LDI4NS45Mzc1IFE3NzUuMDYyNSwyODUuOTM3NSA3NzUuMDYyNSwyNzYuNzUgTDc3My4zMTI1LDI3Ni43NSBRNzczLjMxMjUsMjc2Ljc1IDc3My4zMTI1LDI4NS45Mzc1IEw3NzUuMDYyNSwyODUuOTM3NSBaIE03NzguNjI1LDI4NS45Mzc1IEw3ODAuMzc1LDI4NS45Mzc1IFE3ODAuMzc1LDI4NS45Mzc1IDc4MC4zNzUsMjgzLjEyNSBMNzc4LjYyNSwyODMuMTI1IFE3NzguNjI1LDI4My4xMjUgNzc4LjYyNSwyODUuOTM3NSBaIE03NzguNjI1LDI3Ni43NSBRNzc4LjYyNSwyNzYuNzUgNzc4LjYyNSwyNzkuNTYyNSBMNzgwLjM3NSwyNzkuNTYyNSBRNzgwLjM3NSwyNzkuNTYyNSA3ODAuMzc1LDI3Ni43NSBMNzc4LjYyNSwyNzYuNzUgWiBNNzc0LjM3NSwyNzcuNDM3NSBMNzc5LjMxMjUsMjc3LjQzNzUgTDc3OS4zMTI1LDI3NS42ODc1IEw3NzQuMzc1LDI3NS42ODc1IEw3NzQuMzc1LDI3Ny40Mzc1IFogIiBmaWxsPSIjMDAwMDAwIi8+PHRleHQgZmlsbD0iIzAwMDAwMCIgZm9udC1mYW1pbHk9InNhbnMtc2VyaWYiIGZvbnQtc2l6ZT0iMTQiIGxlbmd0aEFkanVzdD0ic3BhY2luZyIgdGV4dExlbmd0aD0iOTkiIHg9Ijc5Ny4yNSIgeT0iMjg2Ljc0MjIiPkFkbWluaXN0cmF0ZXVyPC90ZXh0PjxsaW5lIHN0eWxlPSJzdHJva2U6IzE4MTgxODtzdHJva2Utd2lkdGg6MC41OyIgeDE9IjcxOS41IiB4Mj0iOTQxLjUiIHkxPSIyOTciIHkyPSIyOTciLz48bGluZSBzdHlsZT0ic3Ryb2tlOiMxODE4MTg7c3Ryb2tlLXdpZHRoOjAuNTsiIHgxPSI3MTkuNSIgeDI9Ijk0MS41IiB5MT0iMzA1IiB5Mj0iMzA1Ii8+PGVsbGlwc2UgY3g9IjcyOS41IiBjeT0iMzE3Ljk5MjIiIGZpbGw9IiM4NEJFODQiIHJ4PSIzIiByeT0iMyIgc3R5bGU9InN0cm9rZTojMDM4MDQ4O3N0cm9rZS13aWR0aDoxLjA7Ii8+PHRleHQgZmlsbD0iIzAwMDAwMCIgZm9udC1mYW1pbHk9InNhbnMtc2VyaWYiIGZvbnQtc2l6ZT0iMTQiIGxlbmd0aEFkanVzdD0ic3BhY2luZyIgdGV4dExlbmd0aD0iMTc3IiB4PSI3MzguNSIgeT0iMzIyLjIzNDQiPmcmIzIzMztyZXJVdGlsaXNhdGV1cnMoKTogdm9pZDwvdGV4dD48ZWxsaXBzZSBjeD0iNzI5LjUiIGN5PSIzMzIuOTc2NiIgZmlsbD0iIzg0QkU4NCIgcng9IjMiIHJ5PSIzIiBzdHlsZT0ic3Ryb2tlOiMwMzgwNDg7c3Ryb2tlLXdpZHRoOjEuMDsiLz48dGV4dCBmaWxsPSIjMDAwMDAwIiBmb250LWZhbWlseT0ic2Fucy1zZXJpZiIgZm9udC1zaXplPSIxNCIgbGVuZ3RoQWRqdXN0PSJzcGFjaW5nIiB0ZXh0TGVuZ3RoPSIxNTciIHg9IjczOC41IiB5PSIzMzcuMjE4OCI+ZyYjMjMzO3JlclBhaWVtZW50cygpOiB2b2lkPC90ZXh0PjxlbGxpcHNlIGN4PSI3MjkuNSIgY3k9IjM0Ny45NjA5IiBmaWxsPSIjODRCRTg0IiByeD0iMyIgcnk9IjMiIHN0eWxlPSJzdHJva2U6IzAzODA0ODtzdHJva2Utd2lkdGg6MS4wOyIvPjx0ZXh0IGZpbGw9IiMwMDAwMDAiIGZvbnQtZmFtaWx5PSJzYW5zLXNlcmlmIiBmb250LXNpemU9IjE0IiBsZW5ndGhBZGp1c3Q9InNwYWNpbmciIHRleHRMZW5ndGg9IjEyOCIgeD0iNzM4LjUiIHk9IjM1Mi4yMDMxIj5nJiMyMzM7cmVyQ291cnMoKTogdm9pZDwvdGV4dD48ZWxsaXBzZSBjeD0iNzI5LjUiIGN5PSIzNjIuOTQ1MyIgZmlsbD0iIzg0QkU4NCIgcng9IjMiIHJ5PSIzIiBzdHlsZT0ic3Ryb2tlOiMwMzgwNDg7c3Ryb2tlLXdpZHRoOjEuMDsiLz48dGV4dCBmaWxsPSIjMDAwMDAwIiBmb250LWZhbWlseT0ic2Fucy1zZXJpZiIgZm9udC1zaXplPSIxNCIgbGVuZ3RoQWRqdXN0PSJzcGFjaW5nIiB0ZXh0TGVuZ3RoPSIxOTgiIHg9IjczOC41IiB5PSIzNjcuMTg3NSI+ZW52b3llck5vdGlmaWNhdGlvbnMoKTogdm9pZDwvdGV4dD48L2c+PCEtLWNsYXNzIFBhcmVudC0tPjxnIGlkPSJlbGVtX1BhcmVudCI+PHJlY3QgY29kZUxpbmU9IjM2IiBmaWxsPSIjRjFGMUYxIiBoZWlnaHQ9IjkyLjk1MzEiIGlkPSJQYXJlbnQiIHJ4PSIyLjUiIHJ5PSIyLjUiIHN0eWxlPSJzdHJva2U6IzE4MTgxODtzdHJva2Utd2lkdGg6MC41OyIgd2lkdGg9IjIzMSIgeD0iNDUyIiB5PSIyNzIuNSIvPjxlbGxpcHNlIGN4PSI1NDIuMjUiIGN5PSIyODguNSIgZmlsbD0iI0FERDFCMiIgcng9IjExIiByeT0iMTEiIHN0eWxlPSJzdHJva2U6IzE4MTgxODtzdHJva2Utd2lkdGg6MS4wOyIvPjxwYXRoIGQ9Ik01MzkuODc1LDI5Mi43NSBMNTM5Ljg3NSwyOTQuNSBMNTQ0LjgxMjUsMjk0LjUgTDU0NC44MTI1LDI5Mi43NSBMNTM5Ljg3NSwyOTIuNzUgWiBNNTQwLjU2MjUsMjkzLjQzNzUgUTU0MC41NjI1LDI5My40Mzc1IDU0MC41NjI1LDI4NC4yNSBMNTM4LjgxMjUsMjg0LjI1IFE1MzguODEyNSwyODQuMjUgNTM4LjgxMjUsMjkzLjQzNzUgTDU0MC41NjI1LDI5My40Mzc1IFogTTU0NC4xMjUsMjkzLjQzNzUgTDU0NS44NzUsMjkzLjQzNzUgUTU0NS44NzUsMjkzLjQzNzUgNTQ1Ljg3NSwyOTAuNjI1IEw1NDQuMTI1LDI5MC42MjUgUTU0NC4xMjUsMjkwLjYyNSA1NDQuMTI1LDI5My40Mzc1IFogTTU0NC4xMjUsMjg0LjI1IFE1NDQuMTI1LDI4NC4yNSA1NDQuMTI1LDI4Ny4wNjI1IEw1NDUuODc1LDI4Ny4wNjI1IFE1NDUuODc1LDI4Ny4wNjI1IDU0NS44NzUsMjg0LjI1IEw1NDQuMTI1LDI4NC4yNSBaIE01MzkuODc1LDI4NC45Mzc1IEw1NDQuODEyNSwyODQuOTM3NSBMNTQ0LjgxMjUsMjgzLjE4NzUgTDUzOS44NzUsMjgzLjE4NzUgTDUzOS44NzUsMjg0LjkzNzUgWiAiIGZpbGw9IiMwMDAwMDAiLz48dGV4dCBmaWxsPSIjMDAwMDAwIiBmb250LWZhbWlseT0ic2Fucy1zZXJpZiIgZm9udC1zaXplPSIxNCIgbGVuZ3RoQWRqdXN0PSJzcGFjaW5nIiB0ZXh0TGVuZ3RoPSI0MiIgeD0iNTYyLjc1IiB5PSIyOTQuMjQyMiI+UGFyZW50PC90ZXh0PjxsaW5lIHN0eWxlPSJzdHJva2U6IzE4MTgxODtzdHJva2Utd2lkdGg6MC41OyIgeDE9IjQ1MyIgeDI9IjY4MiIgeTE9IjMwNC41IiB5Mj0iMzA0LjUiLz48ZWxsaXBzZSBjeD0iNDYzIiBjeT0iMzE3LjQ5MjIiIGZpbGw9Im5vbmUiIHJ4PSIzIiByeT0iMyIgc3R5bGU9InN0cm9rZTojMDM4MDQ4O3N0cm9rZS13aWR0aDoxLjA7Ii8+PHRleHQgZmlsbD0iIzAwMDAwMCIgZm9udC1mYW1pbHk9InNhbnMtc2VyaWYiIGZvbnQtc2l6ZT0iMTQiIGxlbmd0aEFkanVzdD0ic3BhY2luZyIgdGV4dExlbmd0aD0iMTQwIiB4PSI0NzIiIHk9IjMyMS43MzQ0Ij5lbmZhbnRzOiBMaXN0Jmx0OyYjMjAxO2wmIzIzMjt2ZSZndDs8L3RleHQ+PGxpbmUgc3R5bGU9InN0cm9rZTojMTgxODE4O3N0cm9rZS13aWR0aDowLjU7IiB4MT0iNDUzIiB4Mj0iNjgyIiB5MT0iMzI3LjQ4NDQiIHkyPSIzMjcuNDg0NCIvPjxlbGxpcHNlIGN4PSI0NjMiIGN5PSIzNDAuNDc2NiIgZmlsbD0iIzg0QkU4NCIgcng9IjMiIHJ5PSIzIiBzdHlsZT0ic3Ryb2tlOiMwMzgwNDg7c3Ryb2tlLXdpZHRoOjEuMDsiLz48dGV4dCBmaWxsPSIjMDAwMDAwIiBmb250LWZhbWlseT0ic2Fucy1zZXJpZiIgZm9udC1zaXplPSIxNCIgbGVuZ3RoQWRqdXN0PSJzcGFjaW5nIiB0ZXh0TGVuZ3RoPSIxODQiIHg9IjQ3MiIgeT0iMzQ0LjcxODgiPmNvbnN1bHRlclImIzIzMztzdWx0YXRzKCk6IHZvaWQ8L3RleHQ+PGVsbGlwc2UgY3g9IjQ2MyIgY3k9IjM1NS40NjA5IiBmaWxsPSIjODRCRTg0IiByeD0iMyIgcnk9IjMiIHN0eWxlPSJzdHJva2U6IzAzODA0ODtzdHJva2Utd2lkdGg6MS4wOyIvPjx0ZXh0IGZpbGw9IiMwMDAwMDAiIGZvbnQtZmFtaWx5PSJzYW5zLXNlcmlmIiBmb250LXNpemU9IjE0IiBsZW5ndGhBZGp1c3Q9InNwYWNpbmciIHRleHRMZW5ndGg9IjIwNSIgeD0iNDcyIiB5PSIzNTkuNzAzMSI+cmVjZXZvaXJOb3RpZmljYXRpb25zKCk6IHZvaWQ8L3RleHQ+PC9nPjwhLS1jbGFzcyBNYXRpP3JlLS0+PGcgaWQ9ImVsZW1fTWF0aSYjMjMyO3JlIj48cmVjdCBjb2RlTGluZT0iNDIiIGZpbGw9IiNGMUYxRjEiIGhlaWdodD0iMTA3LjkzNzUiIGlkPSJNYXRpJiMyMzI7cmUiIHJ4PSIyLjUiIHJ5PSIyLjUiIHN0eWxlPSJzdHJva2U6IzE4MTgxODtzdHJva2Utd2lkdGg6MC41OyIgd2lkdGg9IjIxMCIgeD0iOTkxLjUiIHk9IjQ4NS41Ii8+PGVsbGlwc2UgY3g9IjEwNjcuNzUiIGN5PSI1MDEuNSIgZmlsbD0iI0FERDFCMiIgcng9IjExIiByeT0iMTEiIHN0eWxlPSJzdHJva2U6IzE4MTgxODtzdHJva2Utd2lkdGg6MS4wOyIvPjxwYXRoIGQ9Ik0xMDY1LjM3NSw1MDUuNzUgTDEwNjUuMzc1LDUwNy41IEwxMDcwLjMxMjUsNTA3LjUgTDEwNzAuMzEyNSw1MDUuNzUgTDEwNjUuMzc1LDUwNS43NSBaIE0xMDY2LjA2MjUsNTA2LjQzNzUgUTEwNjYuMDYyNSw1MDYuNDM3NSAxMDY2LjA2MjUsNDk3LjI1IEwxMDY0LjMxMjUsNDk3LjI1IFExMDY0LjMxMjUsNDk3LjI1IDEwNjQuMzEyNSw1MDYuNDM3NSBMMTA2Ni4wNjI1LDUwNi40Mzc1IFogTTEwNjkuNjI1LDUwNi40Mzc1IEwxMDcxLjM3NSw1MDYuNDM3NSBRMTA3MS4zNzUsNTA2LjQzNzUgMTA3MS4zNzUsNTAzLjYyNSBMMTA2OS42MjUsNTAzLjYyNSBRMTA2OS42MjUsNTAzLjYyNSAxMDY5LjYyNSw1MDYuNDM3NSBaIE0xMDY5LjYyNSw0OTcuMjUgUTEwNjkuNjI1LDQ5Ny4yNSAxMDY5LjYyNSw1MDAuMDYyNSBMMTA3MS4zNzUsNTAwLjA2MjUgUTEwNzEuMzc1LDUwMC4wNjI1IDEwNzEuMzc1LDQ5Ny4yNSBMMTA2OS42MjUsNDk3LjI1IFogTTEwNjUuMzc1LDQ5Ny45Mzc1IEwxMDcwLjMxMjUsNDk3LjkzNzUgTDEwNzAuMzEyNSw0OTYuMTg3NSBMMTA2NS4zNzUsNDk2LjE4NzUgTDEwNjUuMzc1LDQ5Ny45Mzc1IFogIiBmaWxsPSIjMDAwMDAwIi8+PHRleHQgZmlsbD0iIzAwMDAwMCIgZm9udC1mYW1pbHk9InNhbnMtc2VyaWYiIGZvbnQtc2l6ZT0iMTQiIGxlbmd0aEFkanVzdD0ic3BhY2luZyIgdGV4dExlbmd0aD0iNDkiIHg9IjEwODguMjUiIHk9IjUwNy4yNDIyIj5NYXRpJiMyMzI7cmU8L3RleHQ+PGxpbmUgc3R5bGU9InN0cm9rZTojMTgxODE4O3N0cm9rZS13aWR0aDowLjU7IiB4MT0iOTkyLjUiIHgyPSIxMjAwLjUiIHkxPSI1MTcuNSIgeTI9IjUxNy41Ii8+PGVsbGlwc2UgY3g9IjEwMDIuNSIgY3k9IjUzMC40OTIyIiBmaWxsPSJub25lIiByeD0iMyIgcnk9IjMiIHN0eWxlPSJzdHJva2U6IzAzODA0ODtzdHJva2Utd2lkdGg6MS4wOyIvPjx0ZXh0IGZpbGw9IiMwMDAwMDAiIGZvbnQtZmFtaWx5PSJzYW5zLXNlcmlmIiBmb250LXNpemU9IjE0IiBsZW5ndGhBZGp1c3Q9InNwYWNpbmciIHRleHRMZW5ndGg9IjQ5IiB4PSIxMDExLjUiIHk9IjUzNC43MzQ0Ij5pZDogaW50PC90ZXh0PjxlbGxpcHNlIGN4PSIxMDAyLjUiIGN5PSI1NDUuNDc2NiIgZmlsbD0ibm9uZSIgcng9IjMiIHJ5PSIzIiBzdHlsZT0ic3Ryb2tlOiMwMzgwNDg7c3Ryb2tlLXdpZHRoOjEuMDsiLz48dGV4dCBmaWxsPSIjMDAwMDAwIiBmb250LWZhbWlseT0ic2Fucy1zZXJpZiIgZm9udC1zaXplPSIxNCIgbGVuZ3RoQWRqdXN0PSJzcGFjaW5nIiB0ZXh0TGVuZ3RoPSI3OCIgeD0iMTAxMS41IiB5PSI1NDkuNzE4OCI+bm9tOiBzdHJpbmc8L3RleHQ+PGVsbGlwc2UgY3g9IjEwMDIuNSIgY3k9IjU2MC40NjA5IiBmaWxsPSJub25lIiByeD0iMyIgcnk9IjMiIHN0eWxlPSJzdHJva2U6IzAzODA0ODtzdHJva2Utd2lkdGg6MS4wOyIvPjx0ZXh0IGZpbGw9IiMwMDAwMDAiIGZvbnQtZmFtaWx5PSJzYW5zLXNlcmlmIiBmb250LXNpemU9IjE0IiBsZW5ndGhBZGp1c3Q9InNwYWNpbmciIHRleHRMZW5ndGg9IjE1NCIgeD0iMTAxMS41IiB5PSI1NjQuNzAzMSI+ZW5zZWlnbmFudDogRW5zZWlnbmFudDwvdGV4dD48bGluZSBzdHlsZT0ic3Ryb2tlOiMxODE4MTg7c3Ryb2tlLXdpZHRoOjAuNTsiIHgxPSI5OTIuNSIgeDI9IjEyMDAuNSIgeTE9IjU3MC40NTMxIiB5Mj0iNTcwLjQ1MzEiLz48ZWxsaXBzZSBjeD0iMTAwMi41IiBjeT0iNTgzLjQ0NTMiIGZpbGw9IiM4NEJFODQiIHJ4PSIzIiByeT0iMyIgc3R5bGU9InN0cm9rZTojMDM4MDQ4O3N0cm9rZS13aWR0aDoxLjA7Ii8+PHRleHQgZmlsbD0iIzAwMDAwMCIgZm9udC1mYW1pbHk9InNhbnMtc2VyaWYiIGZvbnQtc2l6ZT0iMTQiIGxlbmd0aEFkanVzdD0ic3BhY2luZyIgdGV4dExlbmd0aD0iMTg0IiB4PSIxMDExLjUiIHk9IjU4Ny42ODc1Ij5hc3NpZ25lckVuc2VpZ25hbnQoKTogdm9pZDwvdGV4dD48L2c+PCEtLWNsYXNzIENvdXJzLS0+PGcgaWQ9ImVsZW1fQ291cnMiPjxyZWN0IGNvZGVMaW5lPSI0OSIgZmlsbD0iI0YxRjFGMSIgaGVpZ2h0PSIxMzcuOTA2MyIgaWQ9IkNvdXJzIiByeD0iMi41IiByeT0iMi41IiBzdHlsZT0ic3Ryb2tlOiMxODE4MTg7c3Ryb2tlLXdpZHRoOjAuNTsiIHdpZHRoPSIxOTAiIHg9IjEwMDEuNSIgeT0iNjk4LjUiLz48ZWxsaXBzZSBjeD0iMTA3NC43NSIgY3k9IjcxNC41IiBmaWxsPSIjQUREMUIyIiByeD0iMTEiIHJ5PSIxMSIgc3R5bGU9InN0cm9rZTojMTgxODE4O3N0cm9rZS13aWR0aDoxLjA7Ii8+PHBhdGggZD0iTTEwNzIuMzc1LDcxOC43NSBMMTA3Mi4zNzUsNzIwLjUgTDEwNzcuMzEyNSw3MjAuNSBMMTA3Ny4zMTI1LDcxOC43NSBMMTA3Mi4zNzUsNzE4Ljc1IFogTTEwNzMuMDYyNSw3MTkuNDM3NSBRMTA3My4wNjI1LDcxOS40Mzc1IDEwNzMuMDYyNSw3MTAuMjUgTDEwNzEuMzEyNSw3MTAuMjUgUTEwNzEuMzEyNSw3MTAuMjUgMTA3MS4zMTI1LDcxOS40Mzc1IEwxMDczLjA2MjUsNzE5LjQzNzUgWiBNMTA3Ni42MjUsNzE5LjQzNzUgTDEwNzguMzc1LDcxOS40Mzc1IFExMDc4LjM3NSw3MTkuNDM3NSAxMDc4LjM3NSw3MTYuNjI1IEwxMDc2LjYyNSw3MTYuNjI1IFExMDc2LjYyNSw3MTYuNjI1IDEwNzYuNjI1LDcxOS40Mzc1IFogTTEwNzYuNjI1LDcxMC4yNSBRMTA3Ni42MjUsNzEwLjI1IDEwNzYuNjI1LDcxMy4wNjI1IEwxMDc4LjM3NSw3MTMuMDYyNSBRMTA3OC4zNzUsNzEzLjA2MjUgMTA3OC4zNzUsNzEwLjI1IEwxMDc2LjYyNSw3MTAuMjUgWiBNMTA3Mi4zNzUsNzEwLjkzNzUgTDEwNzcuMzEyNSw3MTAuOTM3NSBMMTA3Ny4zMTI1LDcwOS4xODc1IEwxMDcyLjM3NSw3MDkuMTg3NSBMMTA3Mi4zNzUsNzEwLjkzNzUgWiAiIGZpbGw9IiMwMDAwMDAiLz48dGV4dCBmaWxsPSIjMDAwMDAwIiBmb250LWZhbWlseT0ic2Fucy1zZXJpZiIgZm9udC1zaXplPSIxNCIgbGVuZ3RoQWRqdXN0PSJzcGFjaW5nIiB0ZXh0TGVuZ3RoPSIzNSIgeD0iMTA5NS4yNSIgeT0iNzIwLjI0MjIiPkNvdXJzPC90ZXh0PjxsaW5lIHN0eWxlPSJzdHJva2U6IzE4MTgxODtzdHJva2Utd2lkdGg6MC41OyIgeDE9IjEwMDIuNSIgeDI9IjExOTAuNSIgeTE9IjczMC41IiB5Mj0iNzMwLjUiLz48ZWxsaXBzZSBjeD0iMTAxMi41IiBjeT0iNzQzLjQ5MjIiIGZpbGw9Im5vbmUiIHJ4PSIzIiByeT0iMyIgc3R5bGU9InN0cm9rZTojMDM4MDQ4O3N0cm9rZS13aWR0aDoxLjA7Ii8+PHRleHQgZmlsbD0iIzAwMDAwMCIgZm9udC1mYW1pbHk9InNhbnMtc2VyaWYiIGZvbnQtc2l6ZT0iMTQiIGxlbmd0aEFkanVzdD0ic3BhY2luZyIgdGV4dExlbmd0aD0iNDkiIHg9IjEwMjEuNSIgeT0iNzQ3LjczNDQiPmlkOiBpbnQ8L3RleHQ+PGVsbGlwc2UgY3g9IjEwMTIuNSIgY3k9Ijc1OC40NzY2IiBmaWxsPSJub25lIiByeD0iMyIgcnk9IjMiIHN0eWxlPSJzdHJva2U6IzAzODA0ODtzdHJva2Utd2lkdGg6MS4wOyIvPjx0ZXh0IGZpbGw9IiMwMDAwMDAiIGZvbnQtZmFtaWx5PSJzYW5zLXNlcmlmIiBmb250LXNpemU9IjE0IiBsZW5ndGhBZGp1c3Q9InNwYWNpbmciIHRleHRMZW5ndGg9IjExMyIgeD0iMTAyMS41IiB5PSI3NjIuNzE4OCI+bWF0aSYjMjMyO3JlOiBNYXRpJiMyMzI7cmU8L3RleHQ+PGVsbGlwc2UgY3g9IjEwMTIuNSIgY3k9Ijc3My40NjA5IiBmaWxsPSJub25lIiByeD0iMyIgcnk9IjMiIHN0eWxlPSJzdHJva2U6IzAzODA0ODtzdHJva2Utd2lkdGg6MS4wOyIvPjx0ZXh0IGZpbGw9IiMwMDAwMDAiIGZvbnQtZmFtaWx5PSJzYW5zLXNlcmlmIiBmb250LXNpemU9IjE0IiBsZW5ndGhBZGp1c3Q9InNwYWNpbmciIHRleHRMZW5ndGg9IjE1NCIgeD0iMTAyMS41IiB5PSI3NzcuNzAzMSI+ZW5zZWlnbmFudDogRW5zZWlnbmFudDwvdGV4dD48ZWxsaXBzZSBjeD0iMTAxMi41IiBjeT0iNzg4LjQ0NTMiIGZpbGw9Im5vbmUiIHJ4PSIzIiByeT0iMyIgc3R5bGU9InN0cm9rZTojMDM4MDQ4O3N0cm9rZS13aWR0aDoxLjA7Ii8+PHRleHQgZmlsbD0iIzAwMDAwMCIgZm9udC1mYW1pbHk9InNhbnMtc2VyaWYiIGZvbnQtc2l6ZT0iMTQiIGxlbmd0aEFkanVzdD0ic3BhY2luZyIgdGV4dExlbmd0aD0iOTgiIHg9IjEwMjEuNSIgeT0iNzkyLjY4NzUiPmNsYXNzZTogQ2xhc3NlPC90ZXh0PjxlbGxpcHNlIGN4PSIxMDEyLjUiIGN5PSI4MDMuNDI5NyIgZmlsbD0ibm9uZSIgcng9IjMiIHJ5PSIzIiBzdHlsZT0ic3Ryb2tlOiMwMzgwNDg7c3Ryb2tlLXdpZHRoOjEuMDsiLz48dGV4dCBmaWxsPSIjMDAwMDAwIiBmb250LWZhbWlseT0ic2Fucy1zZXJpZiIgZm9udC1zaXplPSIxNCIgbGVuZ3RoQWRqdXN0PSJzcGFjaW5nIiB0ZXh0TGVuZ3RoPSIxMjAiIHg9IjEwMjEuNSIgeT0iODA3LjY3MTkiPmhvcmFpcmU6IGRhdGV0aW1lPC90ZXh0PjxsaW5lIHN0eWxlPSJzdHJva2U6IzE4MTgxODtzdHJva2Utd2lkdGg6MC41OyIgeDE9IjEwMDIuNSIgeDI9IjExOTAuNSIgeTE9IjgxMy40MjE5IiB5Mj0iODEzLjQyMTkiLz48ZWxsaXBzZSBjeD0iMTAxMi41IiBjeT0iODI2LjQxNDEiIGZpbGw9IiM4NEJFODQiIHJ4PSIzIiByeT0iMyIgc3R5bGU9InN0cm9rZTojMDM4MDQ4O3N0cm9rZS13aWR0aDoxLjA7Ii8+PHRleHQgZmlsbD0iIzAwMDAwMCIgZm9udC1mYW1pbHk9InNhbnMtc2VyaWYiIGZvbnQtc2l6ZT0iMTQiIGxlbmd0aEFkanVzdD0ic3BhY2luZyIgdGV4dExlbmd0aD0iMTY0IiB4PSIxMDIxLjUiIHk9IjgzMC42NTYzIj5tb2RpZmllckhvcmFpcmUoKTogdm9pZDwvdGV4dD48L2c+PCEtLWNsYXNzIENsYXNzZS0tPjxnIGlkPSJlbGVtX0NsYXNzZSI+PHJlY3QgY29kZUxpbmU9IjU4IiBmaWxsPSIjRjFGMUYxIiBoZWlnaHQ9IjEyMi45MjE5IiBpZD0iQ2xhc3NlIiByeD0iMi41IiByeT0iMi41IiBzdHlsZT0ic3Ryb2tlOiMxODE4MTg7c3Ryb2tlLXdpZHRoOjAuNTsiIHdpZHRoPSIyMjkiIHg9Ijc5OSIgeT0iOTE5Ii8+PGVsbGlwc2UgY3g9Ijg4OC4yNSIgY3k9IjkzNSIgZmlsbD0iI0FERDFCMiIgcng9IjExIiByeT0iMTEiIHN0eWxlPSJzdHJva2U6IzE4MTgxODtzdHJva2Utd2lkdGg6MS4wOyIvPjxwYXRoIGQ9Ik04ODUuODc1LDkzOS4yNSBMODg1Ljg3NSw5NDEgTDg5MC44MTI1LDk0MSBMODkwLjgxMjUsOTM5LjI1IEw4ODUuODc1LDkzOS4yNSBaIE04ODYuNTYyNSw5MzkuOTM3NSBRODg2LjU2MjUsOTM5LjkzNzUgODg2LjU2MjUsOTMwLjc1IEw4ODQuODEyNSw5MzAuNzUgUTg4NC44MTI1LDkzMC43NSA4ODQuODEyNSw5MzkuOTM3NSBMODg2LjU2MjUsOTM5LjkzNzUgWiBNODkwLjEyNSw5MzkuOTM3NSBMODkxLjg3NSw5MzkuOTM3NSBRODkxLjg3NSw5MzkuOTM3NSA4OTEuODc1LDkzNy4xMjUgTDg5MC4xMjUsOTM3LjEyNSBRODkwLjEyNSw5MzcuMTI1IDg5MC4xMjUsOTM5LjkzNzUgWiBNODkwLjEyNSw5MzAuNzUgUTg5MC4xMjUsOTMwLjc1IDg5MC4xMjUsOTMzLjU2MjUgTDg5MS44NzUsOTMzLjU2MjUgUTg5MS44NzUsOTMzLjU2MjUgODkxLjg3NSw5MzAuNzUgTDg5MC4xMjUsOTMwLjc1IFogTTg4NS44NzUsOTMxLjQzNzUgTDg5MC44MTI1LDkzMS40Mzc1IEw4OTAuODEyNSw5MjkuNjg3NSBMODg1Ljg3NSw5MjkuNjg3NSBMODg1Ljg3NSw5MzEuNDM3NSBaICIgZmlsbD0iIzAwMDAwMCIvPjx0ZXh0IGZpbGw9IiMwMDAwMDAiIGZvbnQtZmFtaWx5PSJzYW5zLXNlcmlmIiBmb250LXNpemU9IjE0IiBsZW5ndGhBZGp1c3Q9InNwYWNpbmciIHRleHRMZW5ndGg9IjQyIiB4PSI5MDguNzUiIHk9Ijk0MC43NDIyIj5DbGFzc2U8L3RleHQ+PGxpbmUgc3R5bGU9InN0cm9rZTojMTgxODE4O3N0cm9rZS13aWR0aDowLjU7IiB4MT0iODAwIiB4Mj0iMTAyNyIgeTE9Ijk1MSIgeTI9Ijk1MSIvPjxlbGxpcHNlIGN4PSI4MTAiIGN5PSI5NjMuOTkyMiIgZmlsbD0ibm9uZSIgcng9IjMiIHJ5PSIzIiBzdHlsZT0ic3Ryb2tlOiMwMzgwNDg7c3Ryb2tlLXdpZHRoOjEuMDsiLz48dGV4dCBmaWxsPSIjMDAwMDAwIiBmb250LWZhbWlseT0ic2Fucy1zZXJpZiIgZm9udC1zaXplPSIxNCIgbGVuZ3RoQWRqdXN0PSJzcGFjaW5nIiB0ZXh0TGVuZ3RoPSI0OSIgeD0iODE5IiB5PSI5NjguMjM0NCI+aWQ6IGludDwvdGV4dD48ZWxsaXBzZSBjeD0iODEwIiBjeT0iOTc4Ljk3NjYiIGZpbGw9Im5vbmUiIHJ4PSIzIiByeT0iMyIgc3R5bGU9InN0cm9rZTojMDM4MDQ4O3N0cm9rZS13aWR0aDoxLjA7Ii8+PHRleHQgZmlsbD0iIzAwMDAwMCIgZm9udC1mYW1pbHk9InNhbnMtc2VyaWYiIGZvbnQtc2l6ZT0iMTQiIGxlbmd0aEFkanVzdD0ic3BhY2luZyIgdGV4dExlbmd0aD0iNzgiIHg9IjgxOSIgeT0iOTgzLjIxODgiPm5vbTogc3RyaW5nPC90ZXh0PjxlbGxpcHNlIGN4PSI4MTAiIGN5PSI5OTMuOTYwOSIgZmlsbD0ibm9uZSIgcng9IjMiIHJ5PSIzIiBzdHlsZT0ic3Ryb2tlOiMwMzgwNDg7c3Ryb2tlLXdpZHRoOjEuMDsiLz48dGV4dCBmaWxsPSIjMDAwMDAwIiBmb250LWZhbWlseT0ic2Fucy1zZXJpZiIgZm9udC1zaXplPSIxNCIgbGVuZ3RoQWRqdXN0PSJzcGFjaW5nIiB0ZXh0TGVuZ3RoPSIxMzMiIHg9IjgxOSIgeT0iOTk4LjIwMzEiPiYjMjMzO2wmIzIzMjt2ZXM6IExpc3QmbHQ7JiMyMDE7bCYjMjMyO3ZlJmd0OzwvdGV4dD48ZWxsaXBzZSBjeD0iODEwIiBjeT0iMTAwOC45NDUzIiBmaWxsPSJub25lIiByeD0iMyIgcnk9IjMiIHN0eWxlPSJzdHJva2U6IzAzODA0ODtzdHJva2Utd2lkdGg6MS4wOyIvPjx0ZXh0IGZpbGw9IiMwMDAwMDAiIGZvbnQtZmFtaWx5PSJzYW5zLXNlcmlmIiBmb250LXNpemU9IjE0IiBsZW5ndGhBZGp1c3Q9InNwYWNpbmciIHRleHRMZW5ndGg9IjIwMyIgeD0iODE5IiB5PSIxMDEzLjE4NzUiPmVuc2VpZ25hbnRzOiBMaXN0Jmx0O0Vuc2VpZ25hbnQmZ3Q7PC90ZXh0PjxsaW5lIHN0eWxlPSJzdHJva2U6IzE4MTgxODtzdHJva2Utd2lkdGg6MC41OyIgeDE9IjgwMCIgeDI9IjEwMjciIHkxPSIxMDE4LjkzNzUiIHkyPSIxMDE4LjkzNzUiLz48ZWxsaXBzZSBjeD0iODEwIiBjeT0iMTAzMS45Mjk3IiBmaWxsPSIjODRCRTg0IiByeD0iMyIgcnk9IjMiIHN0eWxlPSJzdHJva2U6IzAzODA0ODtzdHJva2Utd2lkdGg6MS4wOyIvPjx0ZXh0IGZpbGw9IiMwMDAwMDAiIGZvbnQtZmFtaWx5PSJzYW5zLXNlcmlmIiBmb250LXNpemU9IjE0IiBsZW5ndGhBZGp1c3Q9InNwYWNpbmciIHRleHRMZW5ndGg9IjEzNSIgeD0iODE5IiB5PSIxMDM2LjE3MTkiPmcmIzIzMztyZXImIzIwMTtsJiMyMzI7dmVzKCk6IHZvaWQ8L3RleHQ+PC9nPjwhLS1jbGFzcyBOb3RlLS0+PGcgaWQ9ImVsZW1fTm90ZSI+PHJlY3QgY29kZUxpbmU9IjY2IiBmaWxsPSIjRjFGMUYxIiBoZWlnaHQ9IjEzNy45MDYzIiBpZD0iTm90ZSIgcng9IjIuNSIgcnk9IjIuNSIgc3R5bGU9InN0cm9rZTojMTgxODE4O3N0cm9rZS13aWR0aDowLjU7IiB3aWR0aD0iMTg5IiB4PSI3IiB5PSI2OTguNSIvPjxlbGxpcHNlIGN4PSI4My4yNSIgY3k9IjcxNC41IiBmaWxsPSIjQUREMUIyIiByeD0iMTEiIHJ5PSIxMSIgc3R5bGU9InN0cm9rZTojMTgxODE4O3N0cm9rZS13aWR0aDoxLjA7Ii8+PHBhdGggZD0iTTgwLjg3NSw3MTguNzUgTDgwLjg3NSw3MjAuNSBMODUuODEyNSw3MjAuNSBMODUuODEyNSw3MTguNzUgTDgwLjg3NSw3MTguNzUgWiBNODEuNTYyNSw3MTkuNDM3NSBRODEuNTYyNSw3MTkuNDM3NSA4MS41NjI1LDcxMC4yNSBMNzkuODEyNSw3MTAuMjUgUTc5LjgxMjUsNzEwLjI1IDc5LjgxMjUsNzE5LjQzNzUgTDgxLjU2MjUsNzE5LjQzNzUgWiBNODUuMTI1LDcxOS40Mzc1IEw4Ni44NzUsNzE5LjQzNzUgUTg2Ljg3NSw3MTkuNDM3NSA4Ni44NzUsNzE2LjYyNSBMODUuMTI1LDcxNi42MjUgUTg1LjEyNSw3MTYuNjI1IDg1LjEyNSw3MTkuNDM3NSBaIE04NS4xMjUsNzEwLjI1IFE4NS4xMjUsNzEwLjI1IDg1LjEyNSw3MTMuMDYyNSBMODYuODc1LDcxMy4wNjI1IFE4Ni44NzUsNzEzLjA2MjUgODYuODc1LDcxMC4yNSBMODUuMTI1LDcxMC4yNSBaIE04MC44NzUsNzEwLjkzNzUgTDg1LjgxMjUsNzEwLjkzNzUgTDg1LjgxMjUsNzA5LjE4NzUgTDgwLjg3NSw3MDkuMTg3NSBMODAuODc1LDcxMC45Mzc1IFogIiBmaWxsPSIjMDAwMDAwIi8+PHRleHQgZmlsbD0iIzAwMDAwMCIgZm9udC1mYW1pbHk9InNhbnMtc2VyaWYiIGZvbnQtc2l6ZT0iMTQiIGxlbmd0aEFkanVzdD0ic3BhY2luZyIgdGV4dExlbmd0aD0iMjgiIHg9IjEwMy43NSIgeT0iNzIwLjI0MjIiPk5vdGU8L3RleHQ+PGxpbmUgc3R5bGU9InN0cm9rZTojMTgxODE4O3N0cm9rZS13aWR0aDowLjU7IiB4MT0iOCIgeDI9IjE5NSIgeTE9IjczMC41IiB5Mj0iNzMwLjUiLz48ZWxsaXBzZSBjeD0iMTgiIGN5PSI3NDMuNDkyMiIgZmlsbD0ibm9uZSIgcng9IjMiIHJ5PSIzIiBzdHlsZT0ic3Ryb2tlOiMwMzgwNDg7c3Ryb2tlLXdpZHRoOjEuMDsiLz48dGV4dCBmaWxsPSIjMDAwMDAwIiBmb250LWZhbWlseT0ic2Fucy1zZXJpZiIgZm9udC1zaXplPSIxNCIgbGVuZ3RoQWRqdXN0PSJzcGFjaW5nIiB0ZXh0TGVuZ3RoPSI0OSIgeD0iMjciIHk9Ijc0Ny43MzQ0Ij5pZDogaW50PC90ZXh0PjxlbGxpcHNlIGN4PSIxOCIgY3k9Ijc1OC40NzY2IiBmaWxsPSJub25lIiByeD0iMyIgcnk9IjMiIHN0eWxlPSJzdHJva2U6IzAzODA0ODtzdHJva2Utd2lkdGg6MS4wOyIvPjx0ZXh0IGZpbGw9IiMwMDAwMDAiIGZvbnQtZmFtaWx5PSJzYW5zLXNlcmlmIiBmb250LXNpemU9IjE0IiBsZW5ndGhBZGp1c3Q9InNwYWNpbmciIHRleHRMZW5ndGg9Ijg0IiB4PSIyNyIgeT0iNzYyLjcxODgiPiYjMjMzO2wmIzIzMjt2ZTogJiMyMDE7bCYjMjMyO3ZlPC90ZXh0PjxlbGxpcHNlIGN4PSIxOCIgY3k9Ijc3My40NjA5IiBmaWxsPSJub25lIiByeD0iMyIgcnk9IjMiIHN0eWxlPSJzdHJva2U6IzAzODA0ODtzdHJva2Utd2lkdGg6MS4wOyIvPjx0ZXh0IGZpbGw9IiMwMDAwMDAiIGZvbnQtZmFtaWx5PSJzYW5zLXNlcmlmIiBmb250LXNpemU9IjE0IiBsZW5ndGhBZGp1c3Q9InNwYWNpbmciIHRleHRMZW5ndGg9IjExMyIgeD0iMjciIHk9Ijc3Ny43MDMxIj5tYXRpJiMyMzI7cmU6IE1hdGkmIzIzMjtyZTwvdGV4dD48ZWxsaXBzZSBjeD0iMTgiIGN5PSI3ODguNDQ1MyIgZmlsbD0ibm9uZSIgcng9IjMiIHJ5PSIzIiBzdHlsZT0ic3Ryb2tlOiMwMzgwNDg7c3Ryb2tlLXdpZHRoOjEuMDsiLz48dGV4dCBmaWxsPSIjMDAwMDAwIiBmb250LWZhbWlseT0ic2Fucy1zZXJpZiIgZm9udC1zaXplPSIxNCIgbGVuZ3RoQWRqdXN0PSJzcGFjaW5nIiB0ZXh0TGVuZ3RoPSI5MSIgeD0iMjciIHk9Ijc5Mi42ODc1Ij52YWxldXI6IGZsb2F0PC90ZXh0PjxlbGxpcHNlIGN4PSIxOCIgY3k9IjgwMy40Mjk3IiBmaWxsPSJub25lIiByeD0iMyIgcnk9IjMiIHN0eWxlPSJzdHJva2U6IzAzODA0ODtzdHJva2Utd2lkdGg6MS4wOyIvPjx0ZXh0IGZpbGw9IiMwMDAwMDAiIGZvbnQtZmFtaWx5PSJzYW5zLXNlcmlmIiBmb250LXNpemU9IjE0IiBsZW5ndGhBZGp1c3Q9InNwYWNpbmciIHRleHRMZW5ndGg9IjcwIiB4PSIyNyIgeT0iODA3LjY3MTkiPmRhdGU6IGRhdGU8L3RleHQ+PGxpbmUgc3R5bGU9InN0cm9rZTojMTgxODE4O3N0cm9rZS13aWR0aDowLjU7IiB4MT0iOCIgeDI9IjE5NSIgeTE9IjgxMy40MjE5IiB5Mj0iODEzLjQyMTkiLz48ZWxsaXBzZSBjeD0iMTgiIGN5PSI4MjYuNDE0MSIgZmlsbD0iIzg0QkU4NCIgcng9IjMiIHJ5PSIzIiBzdHlsZT0ic3Ryb2tlOiMwMzgwNDg7c3Ryb2tlLXdpZHRoOjEuMDsiLz48dGV4dCBmaWxsPSIjMDAwMDAwIiBmb250LWZhbWlseT0ic2Fucy1zZXJpZiIgZm9udC1zaXplPSIxNCIgbGVuZ3RoQWRqdXN0PSJzcGFjaW5nIiB0ZXh0TGVuZ3RoPSIxNjMiIHg9IjI3IiB5PSI4MzAuNjU2MyI+ZyYjMjMzO24mIzIzMztyZXJCdWxsZXRpbigpOiB2b2lkPC90ZXh0PjwvZz48IS0tY2xhc3MgUHI/c2VuY2UtLT48ZyBpZD0iZWxlbV9QciYjMjMzO3NlbmNlIj48cmVjdCBjb2RlTGluZT0iNzUiIGZpbGw9IiNGMUYxRjEiIGhlaWdodD0iMTIyLjkyMTkiIGlkPSJQciYjMjMzO3NlbmNlIiByeD0iMi41IiByeT0iMi41IiBzdHlsZT0ic3Ryb2tlOiMxODE4MTg7c3Ryb2tlLXdpZHRoOjAuNTsiIHdpZHRoPSIyMzIiIHg9IjIzMS41IiB5PSI3MDYiLz48ZWxsaXBzZSBjeD0iMzE1LjI1IiBjeT0iNzIyIiBmaWxsPSIjQUREMUIyIiByeD0iMTEiIHJ5PSIxMSIgc3R5bGU9InN0cm9rZTojMTgxODE4O3N0cm9rZS13aWR0aDoxLjA7Ii8+PHBhdGggZD0iTTMxMi44NzUsNzI2LjI1IEwzMTIuODc1LDcyOCBMMzE3LjgxMjUsNzI4IEwzMTcuODEyNSw3MjYuMjUgTDMxMi44NzUsNzI2LjI1IFogTTMxMy41NjI1LDcyNi45Mzc1IFEzMTMuNTYyNSw3MjYuOTM3NSAzMTMuNTYyNSw3MTcuNzUgTDMxMS44MTI1LDcxNy43NSBRMzExLjgxMjUsNzE3Ljc1IDMxMS44MTI1LDcyNi45Mzc1IEwzMTMuNTYyNSw3MjYuOTM3NSBaIE0zMTcuMTI1LDcyNi45Mzc1IEwzMTguODc1LDcyNi45Mzc1IFEzMTguODc1LDcyNi45Mzc1IDMxOC44NzUsNzI0LjEyNSBMMzE3LjEyNSw3MjQuMTI1IFEzMTcuMTI1LDcyNC4xMjUgMzE3LjEyNSw3MjYuOTM3NSBaIE0zMTcuMTI1LDcxNy43NSBRMzE3LjEyNSw3MTcuNzUgMzE3LjEyNSw3MjAuNTYyNSBMMzE4Ljg3NSw3MjAuNTYyNSBRMzE4Ljg3NSw3MjAuNTYyNSAzMTguODc1LDcxNy43NSBMMzE3LjEyNSw3MTcuNzUgWiBNMzEyLjg3NSw3MTguNDM3NSBMMzE3LjgxMjUsNzE4LjQzNzUgTDMxNy44MTI1LDcxNi42ODc1IEwzMTIuODc1LDcxNi42ODc1IEwzMTIuODc1LDcxOC40Mzc1IFogIiBmaWxsPSIjMDAwMDAwIi8+PHRleHQgZmlsbD0iIzAwMDAwMCIgZm9udC1mYW1pbHk9InNhbnMtc2VyaWYiIGZvbnQtc2l6ZT0iMTQiIGxlbmd0aEFkanVzdD0ic3BhY2luZyIgdGV4dExlbmd0aD0iNTYiIHg9IjMzNS43NSIgeT0iNzI3Ljc0MjIiPlByJiMyMzM7c2VuY2U8L3RleHQ+PGxpbmUgc3R5bGU9InN0cm9rZTojMTgxODE4O3N0cm9rZS13aWR0aDowLjU7IiB4MT0iMjMyLjUiIHgyPSI0NjIuNSIgeTE9IjczOCIgeTI9IjczOCIvPjxlbGxpcHNlIGN4PSIyNDIuNSIgY3k9Ijc1MC45OTIyIiBmaWxsPSJub25lIiByeD0iMyIgcnk9IjMiIHN0eWxlPSJzdHJva2U6IzAzODA0ODtzdHJva2Utd2lkdGg6MS4wOyIvPjx0ZXh0IGZpbGw9IiMwMDAwMDAiIGZvbnQtZmFtaWx5PSJzYW5zLXNlcmlmIiBmb250LXNpemU9IjE0IiBsZW5ndGhBZGp1c3Q9InNwYWNpbmciIHRleHRMZW5ndGg9IjQ5IiB4PSIyNTEuNSIgeT0iNzU1LjIzNDQiPmlkOiBpbnQ8L3RleHQ+PGVsbGlwc2UgY3g9IjI0Mi41IiBjeT0iNzY1Ljk3NjYiIGZpbGw9Im5vbmUiIHJ4PSIzIiByeT0iMyIgc3R5bGU9InN0cm9rZTojMDM4MDQ4O3N0cm9rZS13aWR0aDoxLjA7Ii8+PHRleHQgZmlsbD0iIzAwMDAwMCIgZm9udC1mYW1pbHk9InNhbnMtc2VyaWYiIGZvbnQtc2l6ZT0iMTQiIGxlbmd0aEFkanVzdD0ic3BhY2luZyIgdGV4dExlbmd0aD0iODQiIHg9IjI1MS41IiB5PSI3NzAuMjE4OCI+JiMyMzM7bCYjMjMyO3ZlOiAmIzIwMTtsJiMyMzI7dmU8L3RleHQ+PGVsbGlwc2UgY3g9IjI0Mi41IiBjeT0iNzgwLjk2MDkiIGZpbGw9Im5vbmUiIHJ4PSIzIiByeT0iMyIgc3R5bGU9InN0cm9rZTojMDM4MDQ4O3N0cm9rZS13aWR0aDoxLjA7Ii8+PHRleHQgZmlsbD0iIzAwMDAwMCIgZm9udC1mYW1pbHk9InNhbnMtc2VyaWYiIGZvbnQtc2l6ZT0iMTQiIGxlbmd0aEFkanVzdD0ic3BhY2luZyIgdGV4dExlbmd0aD0iNzAiIHg9IjI1MS41IiB5PSI3ODUuMjAzMSI+ZGF0ZTogZGF0ZTwvdGV4dD48bGluZSBzdHlsZT0ic3Ryb2tlOiMxODE4MTg7c3Ryb2tlLXdpZHRoOjAuNTsiIHgxPSIyMzIuNSIgeDI9IjQ2Mi41IiB5MT0iNzkwLjk1MzEiIHkyPSI3OTAuOTUzMSIvPjxlbGxpcHNlIGN4PSIyNDIuNSIgY3k9IjgwMy45NDUzIiBmaWxsPSIjODRCRTg0IiByeD0iMyIgcnk9IjMiIHN0eWxlPSJzdHJva2U6IzAzODA0ODtzdHJva2Utd2lkdGg6MS4wOyIvPjx0ZXh0IGZpbGw9IiMwMDAwMDAiIGZvbnQtZmFtaWx5PSJzYW5zLXNlcmlmIiBmb250LXNpemU9IjE0IiBsZW5ndGhBZGp1c3Q9InNwYWNpbmciIHRleHRMZW5ndGg9IjIwNiIgeD0iMjUxLjUiIHk9IjgwOC4xODc1Ij5zdGF0dXQ6IGVudW0oUHImIzIzMztzZW50LCBBYnNlbnQpPC90ZXh0PjxlbGxpcHNlIGN4PSIyNDIuNSIgY3k9IjgxOC45Mjk3IiBmaWxsPSIjODRCRTg0IiByeD0iMyIgcnk9IjMiIHN0eWxlPSJzdHJva2U6IzAzODA0ODtzdHJva2Utd2lkdGg6MS4wOyIvPjx0ZXh0IGZpbGw9IiMwMDAwMDAiIGZvbnQtZmFtaWx5PSJzYW5zLXNlcmlmIiBmb250LXNpemU9IjE0IiBsZW5ndGhBZGp1c3Q9InNwYWNpbmciIHRleHRMZW5ndGg9IjE5MSIgeD0iMjUxLjUiIHk9IjgyMy4xNzE5Ij5lbnJlZ2lzdHJlclByJiMyMzM7c2VuY2UoKTogdm9pZDwvdGV4dD48L2c+PCEtLWNsYXNzIFBhaWVtZW50LS0+PGcgaWQ9ImVsZW1fUGFpZW1lbnQiPjxyZWN0IGNvZGVMaW5lPSI4MyIgZmlsbD0iI0YxRjFGMSIgaGVpZ2h0PSIxNTIuODkwNiIgaWQ9IlBhaWVtZW50IiByeD0iMi41IiByeT0iMi41IiBzdHlsZT0ic3Ryb2tlOiMxODE4MTg7c3Ryb2tlLXdpZHRoOjAuNTsiIHdpZHRoPSIzMTYiIHg9IjQ5OC41IiB5PSI2OTEiLz48ZWxsaXBzZSBjeD0iNjIzLjc1IiBjeT0iNzA3IiBmaWxsPSIjQUREMUIyIiByeD0iMTEiIHJ5PSIxMSIgc3R5bGU9InN0cm9rZTojMTgxODE4O3N0cm9rZS13aWR0aDoxLjA7Ii8+PHBhdGggZD0iTTYyMS4zNzUsNzExLjI1IEw2MjEuMzc1LDcxMyBMNjI2LjMxMjUsNzEzIEw2MjYuMzEyNSw3MTEuMjUgTDYyMS4zNzUsNzExLjI1IFogTTYyMi4wNjI1LDcxMS45Mzc1IFE2MjIuMDYyNSw3MTEuOTM3NSA2MjIuMDYyNSw3MDIuNzUgTDYyMC4zMTI1LDcwMi43NSBRNjIwLjMxMjUsNzAyLjc1IDYyMC4zMTI1LDcxMS45Mzc1IEw2MjIuMDYyNSw3MTEuOTM3NSBaIE02MjUuNjI1LDcxMS45Mzc1IEw2MjcuMzc1LDcxMS45Mzc1IFE2MjcuMzc1LDcxMS45Mzc1IDYyNy4zNzUsNzA5LjEyNSBMNjI1LjYyNSw3MDkuMTI1IFE2MjUuNjI1LDcwOS4xMjUgNjI1LjYyNSw3MTEuOTM3NSBaIE02MjUuNjI1LDcwMi43NSBRNjI1LjYyNSw3MDIuNzUgNjI1LjYyNSw3MDUuNTYyNSBMNjI3LjM3NSw3MDUuNTYyNSBRNjI3LjM3NSw3MDUuNTYyNSA2MjcuMzc1LDcwMi43NSBMNjI1LjYyNSw3MDIuNzUgWiBNNjIxLjM3NSw3MDMuNDM3NSBMNjI2LjMxMjUsNzAzLjQzNzUgTDYyNi4zMTI1LDcwMS42ODc1IEw2MjEuMzc1LDcwMS42ODc1IEw2MjEuMzc1LDcwMy40Mzc1IFogIiBmaWxsPSIjMDAwMDAwIi8+PHRleHQgZmlsbD0iIzAwMDAwMCIgZm9udC1mYW1pbHk9InNhbnMtc2VyaWYiIGZvbnQtc2l6ZT0iMTQiIGxlbmd0aEFkanVzdD0ic3BhY2luZyIgdGV4dExlbmd0aD0iNTciIHg9IjY0NC4yNSIgeT0iNzEyLjc0MjIiPlBhaWVtZW50PC90ZXh0PjxsaW5lIHN0eWxlPSJzdHJva2U6IzE4MTgxODtzdHJva2Utd2lkdGg6MC41OyIgeDE9IjQ5OS41IiB4Mj0iODEzLjUiIHkxPSI3MjMiIHkyPSI3MjMiLz48ZWxsaXBzZSBjeD0iNTA5LjUiIGN5PSI3MzUuOTkyMiIgZmlsbD0ibm9uZSIgcng9IjMiIHJ5PSIzIiBzdHlsZT0ic3Ryb2tlOiMwMzgwNDg7c3Ryb2tlLXdpZHRoOjEuMDsiLz48dGV4dCBmaWxsPSIjMDAwMDAwIiBmb250LWZhbWlseT0ic2Fucy1zZXJpZiIgZm9udC1zaXplPSIxNCIgbGVuZ3RoQWRqdXN0PSJzcGFjaW5nIiB0ZXh0TGVuZ3RoPSI0OSIgeD0iNTE4LjUiIHk9Ijc0MC4yMzQ0Ij5pZDogaW50PC90ZXh0PjxlbGxpcHNlIGN4PSI1MDkuNSIgY3k9Ijc1MC45NzY2IiBmaWxsPSJub25lIiByeD0iMyIgcnk9IjMiIHN0eWxlPSJzdHJva2U6IzAzODA0ODtzdHJva2Utd2lkdGg6MS4wOyIvPjx0ZXh0IGZpbGw9IiMwMDAwMDAiIGZvbnQtZmFtaWx5PSJzYW5zLXNlcmlmIiBmb250LXNpemU9IjE0IiBsZW5ndGhBZGp1c3Q9InNwYWNpbmciIHRleHRMZW5ndGg9Ijg0IiB4PSI1MTguNSIgeT0iNzU1LjIxODgiPiYjMjMzO2wmIzIzMjt2ZTogJiMyMDE7bCYjMjMyO3ZlPC90ZXh0PjxlbGxpcHNlIGN4PSI1MDkuNSIgY3k9Ijc2NS45NjA5IiBmaWxsPSJub25lIiByeD0iMyIgcnk9IjMiIHN0eWxlPSJzdHJva2U6IzAzODA0ODtzdHJva2Utd2lkdGg6MS4wOyIvPjx0ZXh0IGZpbGw9IiMwMDAwMDAiIGZvbnQtZmFtaWx5PSJzYW5zLXNlcmlmIiBmb250LXNpemU9IjE0IiBsZW5ndGhBZGp1c3Q9InNwYWNpbmciIHRleHRMZW5ndGg9Ijk5IiB4PSI1MTguNSIgeT0iNzcwLjIwMzEiPm1vbnRhbnQ6IGZsb2F0PC90ZXh0PjxlbGxpcHNlIGN4PSI1MDkuNSIgY3k9Ijc4MC45NDUzIiBmaWxsPSJub25lIiByeD0iMyIgcnk9IjMiIHN0eWxlPSJzdHJva2U6IzAzODA0ODtzdHJva2Utd2lkdGg6MS4wOyIvPjx0ZXh0IGZpbGw9IiMwMDAwMDAiIGZvbnQtZmFtaWx5PSJzYW5zLXNlcmlmIiBmb250LXNpemU9IjE0IiBsZW5ndGhBZGp1c3Q9InNwYWNpbmciIHRleHRMZW5ndGg9IjcwIiB4PSI1MTguNSIgeT0iNzg1LjE4NzUiPmRhdGU6IGRhdGU8L3RleHQ+PGxpbmUgc3R5bGU9InN0cm9rZTojMTgxODE4O3N0cm9rZS13aWR0aDowLjU7IiB4MT0iNDk5LjUiIHgyPSI4MTMuNSIgeTE9Ijc5MC45Mzc1IiB5Mj0iNzkwLjkzNzUiLz48ZWxsaXBzZSBjeD0iNTA5LjUiIGN5PSI4MDMuOTI5NyIgZmlsbD0iIzg0QkU4NCIgcng9IjMiIHJ5PSIzIiBzdHlsZT0ic3Ryb2tlOiMwMzgwNDg7c3Ryb2tlLXdpZHRoOjEuMDsiLz48dGV4dCBmaWxsPSIjMDAwMDAwIiBmb250LWZhbWlseT0ic2Fucy1zZXJpZiIgZm9udC1zaXplPSIxNCIgbGVuZ3RoQWRqdXN0PSJzcGFjaW5nIiB0ZXh0TGVuZ3RoPSIyOTAiIHg9IjUxOC41IiB5PSI4MDguMTcxOSI+c3RhdHV0OiBlbnVtKFBheSYjMjMzOywgRW4gYXR0ZW50ZSwgRW4gcmV0YXJkKTwvdGV4dD48ZWxsaXBzZSBjeD0iNTA5LjUiIGN5PSI4MTguOTE0MSIgZmlsbD0iIzg0QkU4NCIgcng9IjMiIHJ5PSIzIiBzdHlsZT0ic3Ryb2tlOiMwMzgwNDg7c3Ryb2tlLXdpZHRoOjEuMDsiLz48dGV4dCBmaWxsPSIjMDAwMDAwIiBmb250LWZhbWlseT0ic2Fucy1zZXJpZiIgZm9udC1zaXplPSIxNCIgbGVuZ3RoQWRqdXN0PSJzcGFjaW5nIiB0ZXh0TGVuZ3RoPSIxNTYiIHg9IjUxOC41IiB5PSI4MjMuMTU2MyI+ZyYjMjMzO24mIzIzMztyZXJGYWN0dXJlKCk6IHZvaWQ8L3RleHQ+PGVsbGlwc2UgY3g9IjUwOS41IiBjeT0iODMzLjg5ODQiIGZpbGw9IiM4NEJFODQiIHJ4PSIzIiByeT0iMyIgc3R5bGU9InN0cm9rZTojMDM4MDQ4O3N0cm9rZS13aWR0aDoxLjA7Ii8+PHRleHQgZmlsbD0iIzAwMDAwMCIgZm9udC1mYW1pbHk9InNhbnMtc2VyaWYiIGZvbnQtc2l6ZT0iMTQiIGxlbmd0aEFkanVzdD0ic3BhY2luZyIgdGV4dExlbmd0aD0iMTQ5IiB4PSI1MTguNSIgeT0iODM4LjE0MDYiPmVudm95ZXJSYXBwZWwoKTogdm9pZDwvdGV4dD48L2c+PCEtLWNsYXNzIE5vdGlmaWNhdGlvbi0tPjxnIGlkPSJlbGVtX05vdGlmaWNhdGlvbiI+PHJlY3QgY29kZUxpbmU9IjkzIiBmaWxsPSIjRjFGMUYxIiBoZWlnaHQ9IjEyMi45MjE5IiBpZD0iTm90aWZpY2F0aW9uIiByeD0iMi41IiByeT0iMi41IiBzdHlsZT0ic3Ryb2tlOiMxODE4MTg7c3Ryb2tlLXdpZHRoOjAuNTsiIHdpZHRoPSIyMTciIHg9IjEyNTEiIHk9IjI1Ny41Ii8+PGVsbGlwc2UgY3g9IjEzMTMuMjUiIGN5PSIyNzMuNSIgZmlsbD0iI0FERDFCMiIgcng9IjExIiByeT0iMTEiIHN0eWxlPSJzdHJva2U6IzE4MTgxODtzdHJva2Utd2lkdGg6MS4wOyIvPjxwYXRoIGQ9Ik0xMzEwLjg3NSwyNzcuNzUgTDEzMTAuODc1LDI3OS41IEwxMzE1LjgxMjUsMjc5LjUgTDEzMTUuODEyNSwyNzcuNzUgTDEzMTAuODc1LDI3Ny43NSBaIE0xMzExLjU2MjUsMjc4LjQzNzUgUTEzMTEuNTYyNSwyNzguNDM3NSAxMzExLjU2MjUsMjY5LjI1IEwxMzA5LjgxMjUsMjY5LjI1IFExMzA5LjgxMjUsMjY5LjI1IDEzMDkuODEyNSwyNzguNDM3NSBMMTMxMS41NjI1LDI3OC40Mzc1IFogTTEzMTUuMTI1LDI3OC40Mzc1IEwxMzE2Ljg3NSwyNzguNDM3NSBRMTMxNi44NzUsMjc4LjQzNzUgMTMxNi44NzUsMjc1LjYyNSBMMTMxNS4xMjUsMjc1LjYyNSBRMTMxNS4xMjUsMjc1LjYyNSAxMzE1LjEyNSwyNzguNDM3NSBaIE0xMzE1LjEyNSwyNjkuMjUgUTEzMTUuMTI1LDI2OS4yNSAxMzE1LjEyNSwyNzIuMDYyNSBMMTMxNi44NzUsMjcyLjA2MjUgUTEzMTYuODc1LDI3Mi4wNjI1IDEzMTYuODc1LDI2OS4yNSBMMTMxNS4xMjUsMjY5LjI1IFogTTEzMTAuODc1LDI2OS45Mzc1IEwxMzE1LjgxMjUsMjY5LjkzNzUgTDEzMTUuODEyNSwyNjguMTg3NSBMMTMxMC44NzUsMjY4LjE4NzUgTDEzMTAuODc1LDI2OS45Mzc1IFogIiBmaWxsPSIjMDAwMDAwIi8+PHRleHQgZmlsbD0iIzAwMDAwMCIgZm9udC1mYW1pbHk9InNhbnMtc2VyaWYiIGZvbnQtc2l6ZT0iMTQiIGxlbmd0aEFkanVzdD0ic3BhY2luZyIgdGV4dExlbmd0aD0iODQiIHg9IjEzMzMuNzUiIHk9IjI3OS4yNDIyIj5Ob3RpZmljYXRpb248L3RleHQ+PGxpbmUgc3R5bGU9InN0cm9rZTojMTgxODE4O3N0cm9rZS13aWR0aDowLjU7IiB4MT0iMTI1MiIgeDI9IjE0NjciIHkxPSIyODkuNSIgeTI9IjI4OS41Ii8+PGVsbGlwc2UgY3g9IjEyNjIiIGN5PSIzMDIuNDkyMiIgZmlsbD0ibm9uZSIgcng9IjMiIHJ5PSIzIiBzdHlsZT0ic3Ryb2tlOiMwMzgwNDg7c3Ryb2tlLXdpZHRoOjEuMDsiLz48dGV4dCBmaWxsPSIjMDAwMDAwIiBmb250LWZhbWlseT0ic2Fucy1zZXJpZiIgZm9udC1zaXplPSIxNCIgbGVuZ3RoQWRqdXN0PSJzcGFjaW5nIiB0ZXh0TGVuZ3RoPSI0OSIgeD0iMTI3MSIgeT0iMzA2LjczNDQiPmlkOiBpbnQ8L3RleHQ+PGVsbGlwc2UgY3g9IjEyNjIiIGN5PSIzMTcuNDc2NiIgZmlsbD0ibm9uZSIgcng9IjMiIHJ5PSIzIiBzdHlsZT0ic3Ryb2tlOiMwMzgwNDg7c3Ryb2tlLXdpZHRoOjEuMDsiLz48dGV4dCBmaWxsPSIjMDAwMDAwIiBmb250LWZhbWlseT0ic2Fucy1zZXJpZiIgZm9udC1zaXplPSIxNCIgbGVuZ3RoQWRqdXN0PSJzcGFjaW5nIiB0ZXh0TGVuZ3RoPSIxNzUiIHg9IjEyNzEiIHk9IjMyMS43MTg4Ij5kZXN0aW5hdGFpcmU6IFV0aWxpc2F0ZXVyPC90ZXh0PjxlbGxpcHNlIGN4PSIxMjYyIiBjeT0iMzMyLjQ2MDkiIGZpbGw9Im5vbmUiIHJ4PSIzIiByeT0iMyIgc3R5bGU9InN0cm9rZTojMDM4MDQ4O3N0cm9rZS13aWR0aDoxLjA7Ii8+PHRleHQgZmlsbD0iIzAwMDAwMCIgZm9udC1mYW1pbHk9InNhbnMtc2VyaWYiIGZvbnQtc2l6ZT0iMTQiIGxlbmd0aEFkanVzdD0ic3BhY2luZyIgdGV4dExlbmd0aD0iMTA2IiB4PSIxMjcxIiB5PSIzMzYuNzAzMSI+bWVzc2FnZTogc3RyaW5nPC90ZXh0PjxlbGxpcHNlIGN4PSIxMjYyIiBjeT0iMzQ3LjQ0NTMiIGZpbGw9Im5vbmUiIHJ4PSIzIiByeT0iMyIgc3R5bGU9InN0cm9rZTojMDM4MDQ4O3N0cm9rZS13aWR0aDoxLjA7Ii8+PHRleHQgZmlsbD0iIzAwMDAwMCIgZm9udC1mYW1pbHk9InNhbnMtc2VyaWYiIGZvbnQtc2l6ZT0iMTQiIGxlbmd0aEFkanVzdD0ic3BhY2luZyIgdGV4dExlbmd0aD0iOTkiIHg9IjEyNzEiIHk9IjM1MS42ODc1Ij5kYXRlOiBkYXRldGltZTwvdGV4dD48bGluZSBzdHlsZT0ic3Ryb2tlOiMxODE4MTg7c3Ryb2tlLXdpZHRoOjAuNTsiIHgxPSIxMjUyIiB4Mj0iMTQ2NyIgeTE9IjM1Ny40Mzc1IiB5Mj0iMzU3LjQzNzUiLz48ZWxsaXBzZSBjeD0iMTI2MiIgY3k9IjM3MC40Mjk3IiBmaWxsPSIjODRCRTg0IiByeD0iMyIgcnk9IjMiIHN0eWxlPSJzdHJva2U6IzAzODA0ODtzdHJva2Utd2lkdGg6MS4wOyIvPjx0ZXh0IGZpbGw9IiMwMDAwMDAiIGZvbnQtZmFtaWx5PSJzYW5zLXNlcmlmIiBmb250LXNpemU9IjE0IiBsZW5ndGhBZGp1c3Q9InNwYWNpbmciIHRleHRMZW5ndGg9IjE5MSIgeD0iMTI3MSIgeT0iMzc0LjY3MTkiPmVudm95ZXJOb3RpZmljYXRpb24oKTogdm9pZDwvdGV4dD48L2c+PCEtLWNsYXNzIE1lc3NhZ2UtLT48ZyBpZD0iZWxlbV9NZXNzYWdlIj48cmVjdCBjb2RlTGluZT0iMTAxIiBmaWxsPSIjRjFGMUYxIiBoZWlnaHQ9IjEzNy45MDYzIiBpZD0iTWVzc2FnZSIgcng9IjIuNSIgcnk9IjIuNSIgc3R5bGU9InN0cm9rZTojMTgxODE4O3N0cm9rZS13aWR0aDowLjU7IiB3aWR0aD0iMjAxIiB4PSIxNTAzIiB5PSIyNTAiLz48ZWxsaXBzZSBjeD0iMTU3NC43NSIgY3k9IjI2NiIgZmlsbD0iI0FERDFCMiIgcng9IjExIiByeT0iMTEiIHN0eWxlPSJzdHJva2U6IzE4MTgxODtzdHJva2Utd2lkdGg6MS4wOyIvPjxwYXRoIGQ9Ik0xNTcyLjM3NSwyNzAuMjUgTDE1NzIuMzc1LDI3MiBMMTU3Ny4zMTI1LDI3MiBMMTU3Ny4zMTI1LDI3MC4yNSBMMTU3Mi4zNzUsMjcwLjI1IFogTTE1NzMuMDYyNSwyNzAuOTM3NSBRMTU3My4wNjI1LDI3MC45Mzc1IDE1NzMuMDYyNSwyNjEuNzUgTDE1NzEuMzEyNSwyNjEuNzUgUTE1NzEuMzEyNSwyNjEuNzUgMTU3MS4zMTI1LDI3MC45Mzc1IEwxNTczLjA2MjUsMjcwLjkzNzUgWiBNMTU3Ni42MjUsMjcwLjkzNzUgTDE1NzguMzc1LDI3MC45Mzc1IFExNTc4LjM3NSwyNzAuOTM3NSAxNTc4LjM3NSwyNjguMTI1IEwxNTc2LjYyNSwyNjguMTI1IFExNTc2LjYyNSwyNjguMTI1IDE1NzYuNjI1LDI3MC45Mzc1IFogTTE1NzYuNjI1LDI2MS43NSBRMTU3Ni42MjUsMjYxLjc1IDE1NzYuNjI1LDI2NC41NjI1IEwxNTc4LjM3NSwyNjQuNTYyNSBRMTU3OC4zNzUsMjY0LjU2MjUgMTU3OC4zNzUsMjYxLjc1IEwxNTc2LjYyNSwyNjEuNzUgWiBNMTU3Mi4zNzUsMjYyLjQzNzUgTDE1NzcuMzEyNSwyNjIuNDM3NSBMMTU3Ny4zMTI1LDI2MC42ODc1IEwxNTcyLjM3NSwyNjAuNjg3NSBMMTU3Mi4zNzUsMjYyLjQzNzUgWiAiIGZpbGw9IiMwMDAwMDAiLz48dGV4dCBmaWxsPSIjMDAwMDAwIiBmb250LWZhbWlseT0ic2Fucy1zZXJpZiIgZm9udC1zaXplPSIxNCIgbGVuZ3RoQWRqdXN0PSJzcGFjaW5nIiB0ZXh0TGVuZ3RoPSI0OSIgeD0iMTU5NS4yNSIgeT0iMjcxLjc0MjIiPk1lc3NhZ2U8L3RleHQ+PGxpbmUgc3R5bGU9InN0cm9rZTojMTgxODE4O3N0cm9rZS13aWR0aDowLjU7IiB4MT0iMTUwNCIgeDI9IjE3MDMiIHkxPSIyODIiIHkyPSIyODIiLz48ZWxsaXBzZSBjeD0iMTUxNCIgY3k9IjI5NC45OTIyIiBmaWxsPSJub25lIiByeD0iMyIgcnk9IjMiIHN0eWxlPSJzdHJva2U6IzAzODA0ODtzdHJva2Utd2lkdGg6MS4wOyIvPjx0ZXh0IGZpbGw9IiMwMDAwMDAiIGZvbnQtZmFtaWx5PSJzYW5zLXNlcmlmIiBmb250LXNpemU9IjE0IiBsZW5ndGhBZGp1c3Q9InNwYWNpbmciIHRleHRMZW5ndGg9IjQ5IiB4PSIxNTIzIiB5PSIyOTkuMjM0NCI+aWQ6IGludDwvdGV4dD48ZWxsaXBzZSBjeD0iMTUxNCIgY3k9IjMwOS45NzY2IiBmaWxsPSJub25lIiByeD0iMyIgcnk9IjMiIHN0eWxlPSJzdHJva2U6IzAzODA0ODtzdHJva2Utd2lkdGg6MS4wOyIvPjx0ZXh0IGZpbGw9IiMwMDAwMDAiIGZvbnQtZmFtaWx5PSJzYW5zLXNlcmlmIiBmb250LXNpemU9IjE0IiBsZW5ndGhBZGp1c3Q9InNwYWNpbmciIHRleHRMZW5ndGg9IjE2MSIgeD0iMTUyMyIgeT0iMzE0LjIxODgiPmV4cCYjMjMzO2RpdGV1cjogVXRpbGlzYXRldXI8L3RleHQ+PGVsbGlwc2UgY3g9IjE1MTQiIGN5PSIzMjQuOTYwOSIgZmlsbD0ibm9uZSIgcng9IjMiIHJ5PSIzIiBzdHlsZT0ic3Ryb2tlOiMwMzgwNDg7c3Ryb2tlLXdpZHRoOjEuMDsiLz48dGV4dCBmaWxsPSIjMDAwMDAwIiBmb250LWZhbWlseT0ic2Fucy1zZXJpZiIgZm9udC1zaXplPSIxNCIgbGVuZ3RoQWRqdXN0PSJzcGFjaW5nIiB0ZXh0TGVuZ3RoPSIxNzUiIHg9IjE1MjMiIHk9IjMyOS4yMDMxIj5kZXN0aW5hdGFpcmU6IFV0aWxpc2F0ZXVyPC90ZXh0PjxlbGxpcHNlIGN4PSIxNTE0IiBjeT0iMzM5Ljk0NTMiIGZpbGw9Im5vbmUiIHJ4PSIzIiByeT0iMyIgc3R5bGU9InN0cm9rZTojMDM4MDQ4O3N0cm9rZS13aWR0aDoxLjA7Ii8+PHRleHQgZmlsbD0iIzAwMDAwMCIgZm9udC1mYW1pbHk9InNhbnMtc2VyaWYiIGZvbnQtc2l6ZT0iMTQiIGxlbmd0aEFkanVzdD0ic3BhY2luZyIgdGV4dExlbmd0aD0iMTA1IiB4PSIxNTIzIiB5PSIzNDQuMTg3NSI+Y29udGVudTogc3RyaW5nPC90ZXh0PjxlbGxpcHNlIGN4PSIxNTE0IiBjeT0iMzU0LjkyOTciIGZpbGw9Im5vbmUiIHJ4PSIzIiByeT0iMyIgc3R5bGU9InN0cm9rZTojMDM4MDQ4O3N0cm9rZS13aWR0aDoxLjA7Ii8+PHRleHQgZmlsbD0iIzAwMDAwMCIgZm9udC1mYW1pbHk9InNhbnMtc2VyaWYiIGZvbnQtc2l6ZT0iMTQiIGxlbmd0aEFkanVzdD0ic3BhY2luZyIgdGV4dExlbmd0aD0iOTkiIHg9IjE1MjMiIHk9IjM1OS4xNzE5Ij5kYXRlOiBkYXRldGltZTwvdGV4dD48bGluZSBzdHlsZT0ic3Ryb2tlOiMxODE4MTg7c3Ryb2tlLXdpZHRoOjAuNTsiIHgxPSIxNTA0IiB4Mj0iMTcwMyIgeTE9IjM2NC45MjE5IiB5Mj0iMzY0LjkyMTkiLz48ZWxsaXBzZSBjeD0iMTUxNCIgY3k9IjM3Ny45MTQxIiBmaWxsPSIjODRCRTg0IiByeD0iMyIgcnk9IjMiIHN0eWxlPSJzdHJva2U6IzAzODA0ODtzdHJva2Utd2lkdGg6MS4wOyIvPjx0ZXh0IGZpbGw9IiMwMDAwMDAiIGZvbnQtZmFtaWx5PSJzYW5zLXNlcmlmIiBmb250LXNpemU9IjE0IiBsZW5ndGhBZGp1c3Q9InNwYWNpbmciIHRleHRMZW5ndGg9IjE1NiIgeD0iMTUyMyIgeT0iMzgyLjE1NjMiPmVudm95ZXJNZXNzYWdlKCk6IHZvaWQ8L3RleHQ+PC9nPjwhLS1yZXZlcnNlIGxpbmsgVXRpbGlzYXRldXIgdG8gP2w/dmUtLT48ZyBpZD0ibGlua19VdGlsaXNhdGV1cl8mIzIwMTtsJiMyMzI7dmUiPjxwYXRoIGNvZGVMaW5lPSIxMTAiIGQ9Ik05OTAuODgwMywxMDEuNTQwMyBDODI3LjYzMDMsMTE3Ljk1MDMgNTA1LjE1LDE2MC41IDQzNC41LDI1MCBDMzg3LjA3LDMxMC4wOCA0MTIuMTUsMzk5LjQ0IDQ0MC43OCw0NjIuNzcgIiBmaWxsPSJub25lIiBpZD0iVXRpbGlzYXRldXItYmFja3RvLSYjMjAxO2wmIzIzMjt2ZSIgc3R5bGU9InN0cm9rZTojMTgxODE4O3N0cm9rZS13aWR0aDoxLjA7Ii8+PHBvbHlnb24gZmlsbD0ibm9uZSIgcG9pbnRzPSIxMDA4Ljc5LDk5Ljc0LDk5MC4yODAyLDk1LjU3MDQsOTkxLjQ4MDQsMTA3LjUxMDIsMTAwOC43OSw5OS43NCIgc3R5bGU9InN0cm9rZTojMTgxODE4O3N0cm9rZS13aWR0aDoxLjA7Ii8+PC9nPjwhLS1yZXZlcnNlIGxpbmsgVXRpbGlzYXRldXIgdG8gRW5zZWlnbmFudC0tPjxnIGlkPSJsaW5rX1V0aWxpc2F0ZXVyX0Vuc2VpZ25hbnQiPjxwYXRoIGNvZGVMaW5lPSIxMTEiIGQ9Ik0xMDk2LjUsMTkzLjE5IEMxMDk2LjUsMjIzLjE1IDEwOTYuNSwyMzguMTEgMTA5Ni41LDI2NC44MSAiIGZpbGw9Im5vbmUiIGlkPSJVdGlsaXNhdGV1ci1iYWNrdG8tRW5zZWlnbmFudCIgc3R5bGU9InN0cm9rZTojMTgxODE4O3N0cm9rZS13aWR0aDoxLjA7Ii8+PHBvbHlnb24gZmlsbD0ibm9uZSIgcG9pbnRzPSIxMDk2LjUsMTc1LjE5LDEwOTAuNSwxOTMuMTksMTEwMi41LDE5My4xOSwxMDk2LjUsMTc1LjE5IiBzdHlsZT0ic3Ryb2tlOiMxODE4MTg7c3Ryb2tlLXdpZHRoOjEuMDsiLz48L2c+PCEtLXJldmVyc2UgbGluayBVdGlsaXNhdGV1ciB0byBBZG1pbmlzdHJhdGV1ci0tPjxnIGlkPSJsaW5rX1V0aWxpc2F0ZXVyX0FkbWluaXN0cmF0ZXVyIj48cGF0aCBjb2RlTGluZT0iMTEyIiBkPSJNOTk0Ljk0MjMsMTc4LjI4NDQgQzk1Ny4xMTIzLDIxMC40MjQ0IDkyNy40NywyMzUuNjEgODkyLjk5LDI2NC45ICIgZmlsbD0ibm9uZSIgaWQ9IlV0aWxpc2F0ZXVyLWJhY2t0by1BZG1pbmlzdHJhdGV1ciIgc3R5bGU9InN0cm9rZTojMTgxODE4O3N0cm9rZS13aWR0aDoxLjA7Ii8+PHBvbHlnb24gZmlsbD0ibm9uZSIgcG9pbnRzPSIxMDA4LjY2LDE2Ni42Myw5OTEuMDU3NSwxNzMuNzExOCw5OTguODI3MSwxODIuODU3LDEwMDguNjYsMTY2LjYzIiBzdHlsZT0ic3Ryb2tlOiMxODE4MTg7c3Ryb2tlLXdpZHRoOjEuMDsiLz48L2c+PCEtLXJldmVyc2UgbGluayBVdGlsaXNhdGV1ciB0byBQYXJlbnQtLT48ZyBpZD0ibGlua19VdGlsaXNhdGV1cl9QYXJlbnQiPjxwYXRoIGNvZGVMaW5lPSIxMTMiIGQ9Ik05OTEuNzYyNCwxMzAuNzE3MSBDOTEwLjg2MjQsMTYxLjE0NzEgODA0LjgsMjAyLjY1IDcwMC41LDI1MCBDNjg1LjI3LDI1Ni45MSA2NjkuMjcsMjY0LjY2IDY1My44NiwyNzIuMzggIiBmaWxsPSJub25lIiBpZD0iVXRpbGlzYXRldXItYmFja3RvLVBhcmVudCIgc3R5bGU9InN0cm9rZTojMTgxODE4O3N0cm9rZS13aWR0aDoxLjA7Ii8+PHBvbHlnb24gZmlsbD0ibm9uZSIgcG9pbnRzPSIxMDA4LjYxLDEyNC4zOCw5ODkuNjUsMTI1LjEwMTIsOTkzLjg3NDgsMTM2LjMzMywxMDA4LjYxLDEyNC4zOCIgc3R5bGU9InN0cm9rZTojMTgxODE4O3N0cm9rZS13aWR0aDoxLjA7Ii8+PC9nPjwhLS1saW5rIFBhcmVudCB0byA/bD92ZS0tPjxnIGlkPSJsaW5rX1BhcmVudF8mIzIwMTtsJiMyMzI7dmUiPjxwYXRoIGNvZGVMaW5lPSIxMTUiIGQ9Ik01NDkuNzgsMzY1LjU0IEM1MzguODQsMzkzLjY4IDUyNC41Miw0MzAuNDkgNTExLjksNDYyLjkxICIgZmlsbD0ibm9uZSIgaWQ9IlBhcmVudC0mIzIwMTtsJiMyMzI7dmUiIHN0eWxlPSJzdHJva2U6IzE4MTgxODtzdHJva2Utd2lkdGg6MS4wOyIvPjxwb2x5Z29uIGZpbGw9IiMwMDAwMDAiIHBvaW50cz0iNTMxLjY4NzIsNDMwLjYxNjgsNTM3LjcwNTYsNDIzLjI1MjcsNTMyLjIyNzYsNDIxLjEyMTYsNTMxLjY4NzIsNDMwLjYxNjgiIHN0eWxlPSJzdHJva2U6IzAwMDAwMDtzdHJva2Utd2lkdGg6MS4wOyIvPjx0ZXh0IGZpbGw9IiMwMDAwMDAiIGZvbnQtZmFtaWx5PSJzYW5zLXNlcmlmIiBmb250LXNpemU9IjEzIiBsZW5ndGhBZGp1c3Q9InNwYWNpbmciIHRleHRMZW5ndGg9IjI2IiB4PSI1NDIuNSIgeT0iNDMxLjI4OTEiPnN1aXQ8L3RleHQ+PHRleHQgZmlsbD0iIzAwMDAwMCIgZm9udC1mYW1pbHk9InNhbnMtc2VyaWYiIGZvbnQtc2l6ZT0iMTMiIGxlbmd0aEFkanVzdD0ic3BhY2luZyIgdGV4dExlbmd0aD0iNyIgeD0iNTM5LjY2MzMiIHk9IjM4NS42ODk5Ij4xPC90ZXh0Pjx0ZXh0IGZpbGw9IiMwMDAwMDAiIGZvbnQtZmFtaWx5PSJzYW5zLXNlcmlmIiBmb250LXNpemU9IjEzIiBsZW5ndGhBZGp1c3Q9InNwYWNpbmciIHRleHRMZW5ndGg9IjI1IiB4PSI0ODguNzQ4NCIgeT0iNDUzLjE2NzEiPjAuLio8L3RleHQ+PC9nPjwhLS1saW5rID9sP3ZlIHRvIENsYXNzZS0tPjxnIGlkPSJsaW5rXyYjMjAxO2wmIzIzMjt2ZV9DbGFzc2UiPjxwYXRoIGNvZGVMaW5lPSIxMTYiIGQ9Ik01ODQuMDQsNTU5LjU3IEM2NjIuMyw1NzkuNDMgNzY3LjYzLDYxOC4yMiA4MzEuNSw2OTEgQzg4Ny42Niw3NTQuOTkgOTA1LjUzLDg1NC45MiA5MTEuMTEsOTE4Ljc4ICIgZmlsbD0ibm9uZSIgaWQ9IiYjMjAxO2wmIzIzMjt2ZS1DbGFzc2UiIHN0eWxlPSJzdHJva2U6IzE4MTgxODtzdHJva2Utd2lkdGg6MS4wOyIvPjxwb2x5Z29uIGZpbGw9IiMwMDAwMDAiIHBvaW50cz0iOTA3Ljg2NjMsNzcxLjY1NDEsOTAzLjk0OTcsNzYyLjk4NzQsODk5LjYwMzYsNzY2Ljk0NDcsOTA3Ljg2NjMsNzcxLjY1NDEiIHN0eWxlPSJzdHJva2U6IzAwMDAwMDtzdHJva2Utd2lkdGg6MS4wOyIvPjx0ZXh0IGZpbGw9IiMwMDAwMDAiIGZvbnQtZmFtaWx5PSJzYW5zLXNlcmlmIiBmb250LXNpemU9IjEzIiBsZW5ndGhBZGp1c3Q9InNwYWNpbmciIHRleHRMZW5ndGg9IjY3IiB4PSI5MTMuNSIgeT0iNzczLjI4OTEiPmFwcGFydGllbnQ8L3RleHQ+PHRleHQgZmlsbD0iIzAwMDAwMCIgZm9udC1mYW1pbHk9InNhbnMtc2VyaWYiIGZvbnQtc2l6ZT0iMTMiIGxlbmd0aEFkanVzdD0ic3BhY2luZyIgdGV4dExlbmd0aD0iMjUiIHg9IjU5Mi4wNTg0IiB5PSI1NTkuODQ5MiI+MC4uKjwvdGV4dD48dGV4dCBmaWxsPSIjMDAwMDAwIiBmb250LWZhbWlseT0ic2Fucy1zZXJpZiIgZm9udC1zaXplPSIxMyIgbGVuZ3RoQWRqdXN0PSJzcGFjaW5nIiB0ZXh0TGVuZ3RoPSI3IiB4PSI5MDMuMzU1MyIgeT0iOTA5LjM5MTkiPjE8L3RleHQ+PC9nPjwhLS1saW5rIEVuc2VpZ25hbnQgdG8gTWF0aT9yZS0tPjxnIGlkPSJsaW5rX0Vuc2VpZ25hbnRfTWF0aSYjMjMyO3JlIj48cGF0aCBjb2RlTGluZT0iMTE3IiBkPSJNMTA5Ni41LDM3My4xNyBDMTA5Ni41LDQwNy4yOCAxMDk2LjUsNDUxLjM5IDEwOTYuNSw0ODUuNDcgIiBmaWxsPSJub25lIiBpZD0iRW5zZWlnbmFudC1NYXRpJiMyMzI7cmUiIHN0eWxlPSJzdHJva2U6IzE4MTgxODtzdHJva2Utd2lkdGg6MS4wOyIvPjxwb2x5Z29uIGZpbGw9IiMwMDAwMDAiIHBvaW50cz0iMTEwMS41LDQzMC45NTcsMTEwNC40Mzg5LDQyMS45MTE5LDEwOTguNTYxMSw0MjEuOTExOSwxMTAxLjUsNDMwLjk1NyIgc3R5bGU9InN0cm9rZTojMDAwMDAwO3N0cm9rZS13aWR0aDoxLjA7Ii8+PHRleHQgZmlsbD0iIzAwMDAwMCIgZm9udC1mYW1pbHk9InNhbnMtc2VyaWYiIGZvbnQtc2l6ZT0iMTMiIGxlbmd0aEFkanVzdD0ic3BhY2luZyIgdGV4dExlbmd0aD0iNTUiIHg9IjExMTAuNSIgeT0iNDMxLjI4OTEiPmVuc2VpZ25lPC90ZXh0Pjx0ZXh0IGZpbGw9IiMwMDAwMDAiIGZvbnQtZmFtaWx5PSJzYW5zLXNlcmlmIiBmb250LXNpemU9IjEzIiBsZW5ndGhBZGp1c3Q9InNwYWNpbmciIHRleHRMZW5ndGg9IjciIHg9IjEwODkuMDUxNiIgeT0iMzkzLjI5NSI+MTwvdGV4dD48dGV4dCBmaWxsPSIjMDAwMDAwIiBmb250LWZhbWlseT0ic2Fucy1zZXJpZiIgZm9udC1zaXplPSIxMyIgbGVuZ3RoQWRqdXN0PSJzcGFjaW5nIiB0ZXh0TGVuZ3RoPSIyNSIgeD0iMTA2OS42NjQxIiB5PSI0NzUuOTQwNCI+MC4uKjwvdGV4dD48L2c+PCEtLWxpbmsgTWF0aT9yZSB0byBDb3Vycy0tPjxnIGlkPSJsaW5rX01hdGkmIzIzMjtyZV9Db3VycyI+PHBhdGggY29kZUxpbmU9IjExOCIgZD0iTTEwOTYuNSw1OTMuNzcgQzEwOTYuNSw2MjQuOTYgMTA5Ni41LDY2NC42NyAxMDk2LjUsNjk4LjE1ICIgZmlsbD0ibm9uZSIgaWQ9Ik1hdGkmIzIzMjtyZS1Db3VycyIgc3R5bGU9InN0cm9rZTojMTgxODE4O3N0cm9rZS13aWR0aDoxLjA7Ii8+PHBvbHlnb24gZmlsbD0iIzAwMDAwMCIgcG9pbnRzPSIxMTAxLjUsNjU4Ljk1NywxMTA0LjQzODksNjQ5LjkxMTksMTA5OC41NjExLDY0OS45MTE5LDExMDEuNSw2NTguOTU3IiBzdHlsZT0ic3Ryb2tlOiMwMDAwMDA7c3Ryb2tlLXdpZHRoOjEuMDsiLz48dGV4dCBmaWxsPSIjMDAwMDAwIiBmb250LWZhbWlseT0ic2Fucy1zZXJpZiIgZm9udC1zaXplPSIxMyIgbGVuZ3RoQWRqdXN0PSJzcGFjaW5nIiB0ZXh0TGVuZ3RoPSI2NyIgeD0iMTExMC41IiB5PSI2NTkuMjg5MSI+YXBwYXJ0aWVudDwvdGV4dD48dGV4dCBmaWxsPSIjMDAwMDAwIiBmb250LWZhbWlseT0ic2Fucy1zZXJpZiIgZm9udC1zaXplPSIxMyIgbGVuZ3RoQWRqdXN0PSJzcGFjaW5nIiB0ZXh0TGVuZ3RoPSI3IiB4PSIxMDg5LjA1MTYiIHk9IjYxMy45MDc4Ij4xPC90ZXh0Pjx0ZXh0IGZpbGw9IiMwMDAwMDAiIGZvbnQtZmFtaWx5PSJzYW5zLXNlcmlmIiBmb250LXNpemU9IjEzIiBsZW5ndGhBZGp1c3Q9InNwYWNpbmciIHRleHRMZW5ndGg9IjI1IiB4PSIxMDcwLjA1NDciIHk9IjY4OC43MjcyIj4wLi4qPC90ZXh0PjwvZz48IS0tbGluayBDb3VycyB0byBDbGFzc2UtLT48ZyBpZD0ibGlua19Db3Vyc19DbGFzc2UiPjxwYXRoIGNvZGVMaW5lPSIxMTkiIGQ9Ik0xMDM3LjM0LDgzNi43MSBDMTAxNC4zNiw4NjMuMiA5ODguMjcsODkzLjI5IDk2NS45OCw5MTguOTkgIiBmaWxsPSJub25lIiBpZD0iQ291cnMtQ2xhc3NlIiBzdHlsZT0ic3Ryb2tlOiMxODE4MTg7c3Ryb2tlLXdpZHRoOjEuMDsiLz48cG9seWdvbiBmaWxsPSIjMDAwMDAwIiBwb2ludHM9IjEwMDcuMjI0LDg4NS43MzQzLDEwMTUuMzcwNiw4ODAuODI2NywxMDEwLjkzMDEsODc2Ljk3NTYsMTAwNy4yMjQsODg1LjczNDMiIHN0eWxlPSJzdHJva2U6IzAwMDAwMDtzdHJva2Utd2lkdGg6MS4wOyIvPjx0ZXh0IGZpbGw9IiMwMDAwMDAiIGZvbnQtZmFtaWx5PSJzYW5zLXNlcmlmIiBmb250LXNpemU9IjEzIiBsZW5ndGhBZGp1c3Q9InNwYWNpbmciIHRleHRMZW5ndGg9IjgzIiB4PSIxMDE5LjUiIHk9Ijg4Ny4yODkxIj5kaXNwZW5zJiMyMzM7RGFuczwvdGV4dD48dGV4dCBmaWxsPSIjMDAwMDAwIiBmb250LWZhbWlseT0ic2Fucy1zZXJpZiIgZm9udC1zaXplPSIxMyIgbGVuZ3RoQWRqdXN0PSJzcGFjaW5nIiB0ZXh0TGVuZ3RoPSI3IiB4PSIxMDIzLjg3ODIiIHk9Ijg1Ni44NTg2Ij4xPC90ZXh0Pjx0ZXh0IGZpbGw9IiMwMDAwMDAiIGZvbnQtZmFtaWx5PSJzYW5zLXNlcmlmIiBmb250LXNpemU9IjEzIiBsZW5ndGhBZGp1c3Q9InNwYWNpbmciIHRleHRMZW5ndGg9IjI1IiB4PSI5NDYuMzUyMyIgeT0iOTA5LjIwNjkiPjAuLio8L3RleHQ+PC9nPjwhLS1saW5rID9sP3ZlIHRvIE5vdGUtLT48ZyBpZD0ibGlua18mIzIwMTtsJiMyMzI7dmVfTm90ZSI+PHBhdGggY29kZUxpbmU9IjEyMCIgZD0iTTM4MC43Niw1OTQuODMgQzMyOS45NCw2MjIuNjEgMjY3Ljg1LDY1Ny41NiAyMTMuNSw2OTEgQzIwNy44MSw2OTQuNSAyMDIsNjk4LjE2IDE5Ni4xNiw3MDEuOSAiIGZpbGw9Im5vbmUiIGlkPSImIzIwMTtsJiMyMzI7dmUtTm90ZSIgc3R5bGU9InN0cm9rZTojMTgxODE4O3N0cm9rZS13aWR0aDoxLjA7Ii8+PHBvbHlnb24gZmlsbD0iIzAwMDAwMCIgcG9pbnRzPSIyODcuMTc0OSw2NTYuNDY1NywyOTYuNDczNiw2NTQuNDY5OCwyOTMuNTI0Niw2NDkuMzg1MywyODcuMTc0OSw2NTYuNDY1NyIgc3R5bGU9InN0cm9rZTojMDAwMDAwO3N0cm9rZS13aWR0aDoxLjA7Ii8+PHRleHQgZmlsbD0iIzAwMDAwMCIgZm9udC1mYW1pbHk9InNhbnMtc2VyaWYiIGZvbnQtc2l6ZT0iMTMiIGxlbmd0aEFkanVzdD0ic3BhY2luZyIgdGV4dExlbmd0aD0iNDAiIHg9IjMwMC41IiB5PSI2NTkuMjg5MSI+cmUmIzIzMTtvaXQ8L3RleHQ+PHRleHQgZmlsbD0iIzAwMDAwMCIgZm9udC1mYW1pbHk9InNhbnMtc2VyaWYiIGZvbnQtc2l6ZT0iMTMiIGxlbmd0aEFkanVzdD0ic3BhY2luZyIgdGV4dExlbmd0aD0iNyIgeD0iMzY2LjAzMTQiIHk9IjU5Ny43NDI2Ij4xPC90ZXh0Pjx0ZXh0IGZpbGw9IiMwMDAwMDAiIGZvbnQtZmFtaWx5PSJzYW5zLXNlcmlmIiBmb250LXNpemU9IjEzIiBsZW5ndGhBZGp1c3Q9InNwYWNpbmciIHRleHRMZW5ndGg9IjI1IiB4PSIyMDQuMDI5NiIgeT0iNjk1LjkzMTIiPjAuLio8L3RleHQ+PC9nPjwhLS1saW5rID9sP3ZlIHRvIFByP3NlbmNlLS0+PGcgaWQ9ImxpbmtfJiMyMDE7bCYjMjMyO3ZlX1ByJiMyMzM7c2VuY2UiPjxwYXRoIGNvZGVMaW5lPSIxMjEiIGQ9Ik00MzcuMzYsNjE2LjA3IEM0MTkuODgsNjQ1LjMzIDQwMC4xNSw2NzguMzYgMzgzLjY0LDcwNiAiIGZpbGw9Im5vbmUiIGlkPSImIzIwMTtsJiMyMzI7dmUtUHImIzIzMztzZW5jZSIgc3R5bGU9InN0cm9rZTojMTgxODE4O3N0cm9rZS13aWR0aDoxLjA7Ii8+PHBvbHlnb24gZmlsbD0iIzAwMDAwMCIgcG9pbnRzPSI0MjEuOTM1OSw2NTguMjQ5NSw0MjkuMDk3NSw2NTEuOTkxNSw0MjQuMDUxNCw2NDguOTc3Miw0MjEuOTM1OSw2NTguMjQ5NSIgc3R5bGU9InN0cm9rZTojMDAwMDAwO3N0cm9rZS13aWR0aDoxLjA7Ii8+PHRleHQgZmlsbD0iIzAwMDAwMCIgZm9udC1mYW1pbHk9InNhbnMtc2VyaWYiIGZvbnQtc2l6ZT0iMTMiIGxlbmd0aEFkanVzdD0ic3BhY2luZyIgdGV4dExlbmd0aD0iNjgiIHg9IjQzMy41IiB5PSI2NTkuMjg5MSI+ZW5yZWdpc3RyZTwvdGV4dD48dGV4dCBmaWxsPSIjMDAwMDAwIiBmb250LWZhbWlseT0ic2Fucy1zZXJpZiIgZm9udC1zaXplPSIxMyIgbGVuZ3RoQWRqdXN0PSJzcGFjaW5nIiB0ZXh0TGVuZ3RoPSI3IiB4PSI0MjUuODc2IiB5PSI2MzYuMDY0MyI+MTwvdGV4dD48dGV4dCBmaWxsPSIjMDAwMDAwIiBmb250LWZhbWlseT0ic2Fucy1zZXJpZiIgZm9udC1zaXplPSIxMyIgbGVuZ3RoQWRqdXN0PSJzcGFjaW5nIiB0ZXh0TGVuZ3RoPSIyNSIgeD0iMzYxLjgxNjYiIHk9IjY5Ni4yMTgyIj4wLi4qPC90ZXh0PjwvZz48IS0tbGluayA/bD92ZSB0byBQYWllbWVudC0tPjxnIGlkPSJsaW5rXyYjMjAxO2wmIzIzMjt2ZV9QYWllbWVudCI+PHBhdGggY29kZUxpbmU9IjEyMiIgZD0iTTU0MC42OCw2MTYuMDcgQzU1OS4xNiw2NDAuMDYgNTc5LjU5LDY2Ni42IDU5OC4wOCw2OTAuNjIgIiBmaWxsPSJub25lIiBpZD0iJiMyMDE7bCYjMjMyO3ZlLVBhaWVtZW50IiBzdHlsZT0ic3Ryb2tlOiMxODE4MTg7c3Ryb2tlLXdpZHRoOjEuMDsiLz48cG9seWdvbiBmaWxsPSIjMDAwMDAwIiBwb2ludHM9IjU4My41NTA0LDY1Ny45MTg4LDU4MC4zNjA5LDY0OC45NTksNTc1LjcwMzYsNjUyLjU0NDksNTgzLjU1MDQsNjU3LjkxODgiIHN0eWxlPSJzdHJva2U6IzAwMDAwMDtzdHJva2Utd2lkdGg6MS4wOyIvPjx0ZXh0IGZpbGw9IiMwMDAwMDAiIGZvbnQtZmFtaWx5PSJzYW5zLXNlcmlmIiBmb250LXNpemU9IjEzIiBsZW5ndGhBZGp1c3Q9InNwYWNpbmciIHRleHRMZW5ndGg9IjUzIiB4PSI1ODkuNSIgeT0iNjU5LjI4OTEiPmVmZmVjdHVlPC90ZXh0Pjx0ZXh0IGZpbGw9IiMwMDAwMDAiIGZvbnQtZmFtaWx5PSJzYW5zLXNlcmlmIiBmb250LXNpemU9IjEzIiBsZW5ndGhBZGp1c3Q9InNwYWNpbmciIHRleHRMZW5ndGg9IjciIHg9IjUzOC43MjA4IiB5PSI2MzYuMDY0MyI+MTwvdGV4dD48dGV4dCBmaWxsPSIjMDAwMDAwIiBmb250LWZhbWlseT0ic2Fucy1zZXJpZiIgZm9udC1zaXplPSIxMyIgbGVuZ3RoQWRqdXN0PSJzcGFjaW5nIiB0ZXh0TGVuZ3RoPSIyNSIgeD0iNTY1Ljc2NjQiIHk9IjY4MS4zNjMzIj4wLi4qPC90ZXh0PjwvZz48IS0tbGluayBVdGlsaXNhdGV1ciB0byBOb3RpZmljYXRpb24tLT48ZyBpZD0ibGlua19VdGlsaXNhdGV1cl9Ob3RpZmljYXRpb24iPjxwYXRoIGNvZGVMaW5lPSIxMjMiIGQ9Ik0xMTg0LjA4LDE2Ny4yNSBDMTIxOC4xNCwxOTYuNTMgMTI1Ni42NiwyMjkuNjMgMTI4OC45LDI1Ny4zMyAiIGZpbGw9Im5vbmUiIGlkPSJVdGlsaXNhdGV1ci1Ob3RpZmljYXRpb24iIHN0eWxlPSJzdHJva2U6IzE4MTgxODtzdHJva2Utd2lkdGg6MS4wOyIvPjxwb2x5Z29uIGZpbGw9IiMwMDAwMDAiIHBvaW50cz0iMTI1My4yOTIxLDIxNi4yMTU5LDEyNDguMzQ3NiwyMDguMDkxNiwxMjQ0LjUxNjYsMjEyLjU0OTUsMTI1My4yOTIxLDIxNi4yMTU5IiBzdHlsZT0ic3Ryb2tlOiMwMDAwMDA7c3Ryb2tlLXdpZHRoOjEuMDsiLz48dGV4dCBmaWxsPSIjMDAwMDAwIiBmb250LWZhbWlseT0ic2Fucy1zZXJpZiIgZm9udC1zaXplPSIxMyIgbGVuZ3RoQWRqdXN0PSJzcGFjaW5nIiB0ZXh0TGVuZ3RoPSI0MCIgeD0iMTI1OC41IiB5PSIyMTguMjg5MSI+cmUmIzIzMTtvaXQ8L3RleHQ+PHRleHQgZmlsbD0iIzAwMDAwMCIgZm9udC1mYW1pbHk9InNhbnMtc2VyaWYiIGZvbnQtc2l6ZT0iMTMiIGxlbmd0aEFkanVzdD0ic3BhY2luZyIgdGV4dExlbmd0aD0iNyIgeD0iMTE5MS45MDcyIiB5PSIxNzIuNTc3OSI+MTwvdGV4dD48dGV4dCBmaWxsPSIjMDAwMDAwIiBmb250LWZhbWlseT0ic2Fucy1zZXJpZiIgZm9udC1zaXplPSIxMyIgbGVuZ3RoQWRqdXN0PSJzcGFjaW5nIiB0ZXh0TGVuZ3RoPSIyNSIgeD0iMTI1My4yNTI4IiB5PSIyNDcuOTQ4MyI+MC4uKjwvdGV4dD48L2c+PCEtLWxpbmsgVXRpbGlzYXRldXIgdG8gTWVzc2FnZS0tPjxnIGlkPSJsaW5rX1V0aWxpc2F0ZXVyX01lc3NhZ2UiPjxwYXRoIGNvZGVMaW5lPSIxMjQiIGQ9Ik0xMTg0LjA1LDkzLjQzIEMxMjgxLjcsOTkuMzMgMTQzOS42OCwxMjIuMjQgMTU0NC41LDIwNSBDMTU1OS4zNSwyMTYuNzMgMTU3MC44NiwyMzMuMjIgMTU3OS42MSwyNTAgIiBmaWxsPSJub25lIiBpZD0iVXRpbGlzYXRldXItTWVzc2FnZSIgc3R5bGU9InN0cm9rZTojMTgxODE4O3N0cm9rZS13aWR0aDoxLjA7Ii8+PHBvbHlnb24gZmlsbD0iIzAwMDAwMCIgcG9pbnRzPSIxNTY5LjE0OTEsMjE0Ljc5NzIsMTU2MS44MjA1LDIwOC43MzU2LDE1NTkuNjU3MiwyMTQuMjAwOSwxNTY5LjE0OTEsMjE0Ljc5NzIiIHN0eWxlPSJzdHJva2U6IzAwMDAwMDtzdHJva2Utd2lkdGg6MS4wOyIvPjx0ZXh0IGZpbGw9IiMwMDAwMDAiIGZvbnQtZmFtaWx5PSJzYW5zLXNlcmlmIiBmb250LXNpemU9IjEzIiBsZW5ndGhBZGp1c3Q9InNwYWNpbmciIHRleHRMZW5ndGg9IjQxIiB4PSIxNTczLjUiIHk9IjIxOC4yODkxIj5lbnZvaWU8L3RleHQ+PHRleHQgZmlsbD0iIzAwMDAwMCIgZm9udC1mYW1pbHk9InNhbnMtc2VyaWYiIGZvbnQtc2l6ZT0iMTMiIGxlbmd0aEFkanVzdD0ic3BhY2luZyIgdGV4dExlbmd0aD0iNyIgeD0iMTE5MS44NzQ2IiB5PSI5Mi40MTM5Ij4xPC90ZXh0Pjx0ZXh0IGZpbGw9IiMwMDAwMDAiIGZvbnQtZmFtaWx5PSJzYW5zLXNlcmlmIiBmb250LXNpemU9IjEzIiBsZW5ndGhBZGp1c3Q9InNwYWNpbmciIHRleHRMZW5ndGg9IjI1IiB4PSIxNTUwLjE3NSIgeT0iMjQwLjE0ODkiPjAuLio8L3RleHQ+PC9nPjwhLS1saW5rIFV0aWxpc2F0ZXVyIHRvIE1lc3NhZ2UtLT48ZyBpZD0ibGlua19VdGlsaXNhdGV1cl9NZXNzYWdlIj48cGF0aCBjb2RlTGluZT0iMTI1IiBkPSJNMTE4NC4xMywxMjMuNjUgQzEyNjMuOTYsMTUzLjQyIDEzODQuNDcsMjAwLjY2IDE0ODUuNSwyNTAgQzE0OTEuMjQsMjUyLjggMTQ5Ny4wOCwyNTUuNzcgMTUwMi45MywyNTguODMgIiBmaWxsPSJub25lIiBpZD0iVXRpbGlzYXRldXItTWVzc2FnZS0xIiBzdHlsZT0ic3Ryb2tlOiMxODE4MTg7c3Ryb2tlLXdpZHRoOjEuMDsiLz48cG9seWdvbiBmaWxsPSIjMDAwMDAwIiBwb2ludHM9IjE0MjMuMTAzMywyMTQuOTA4OSwxNDE1LjkyMzIsMjA4LjY3MjIsMTQxMy42Mjg2LDIxNC4wODM2LDE0MjMuMTAzMywyMTQuOTA4OSIgc3R5bGU9InN0cm9rZTojMDAwMDAwO3N0cm9rZS13aWR0aDoxLjA7Ii8+PHRleHQgZmlsbD0iIzAwMDAwMCIgZm9udC1mYW1pbHk9InNhbnMtc2VyaWYiIGZvbnQtc2l6ZT0iMTMiIGxlbmd0aEFkanVzdD0ic3BhY2luZyIgdGV4dExlbmd0aD0iNDAiIHg9IjE0MjcuNSIgeT0iMjE4LjI4OTEiPnJlJiMyMzE7b2l0PC90ZXh0Pjx0ZXh0IGZpbGw9IiMwMDAwMDAiIGZvbnQtZmFtaWx5PSJzYW5zLXNlcmlmIiBmb250LXNpemU9IjEzIiBsZW5ndGhBZGp1c3Q9InNwYWNpbmciIHRleHRMZW5ndGg9IjciIHg9IjExOTEuOTYxNSIgeT0iMTI1LjIzMSI+MTwvdGV4dD48dGV4dCBmaWxsPSIjMDAwMDAwIiBmb250LWZhbWlseT0ic2Fucy1zZXJpZiIgZm9udC1zaXplPSIxMyIgbGVuZ3RoQWRqdXN0PSJzcGFjaW5nIiB0ZXh0TGVuZ3RoPSIyNSIgeD0iMTQ2OS45Nzk4IiB5PSIyNTMuNDY2OCI+MC4uKjwvdGV4dD48L2c+PCEtLVNSQz1bWkxSRFJqaW0zQnhkQU9JU2FZcWpqZ2pHMTZZSjNaamlITDFpM3czUEpBUjFiWkZ6MTJrc0ZTMlVQRkx6Ui0wTjZvckJZY0d4UUt3TUk4aHdJN3dhZDFMQ0FWOVB5dThoZmk1OHlkRDJvNmwyU3FndXE3T2pnZjhJZklLTkV4bFZJLVlCZTZJeUkySGJmVFVtR1VVR1k2TnBocVdiMmJRTDQ5MWZhQkN2OU9VQXZxdy1Sa2ZpZUZlemNNR01TX0VkUTl1RnVGM2MyRncxU1FNT29EMV9reExvUXVrMmJWcnN5MWRZcnZIaXhEVDVnNDVIeWU0aFZWRTB3d01CaXdhTGUzLWxzZFgxZnFUbW9YRzh4aXVLMU1XazRsbWJhenlEbzcxYzZDNnpLQzF0V1dkaldZWVB2aXNwM0ZUelRGa2JvXzYtZ0JYUWNxLXV5WVFob2FaTHdUY3RvWTJPNWxfQzlNVDFzYnNDUWpWSzRrSXpUVUt5M083VHZZS053NXQ2WkVYRUhhbkhpdzdaM1VER09iUjdUMVBnOFdUbmc5dWlPaHhiNkdRQjJIc1l3VWhhSzgzT09odnl6MnhDTlphVUNVRXVPM3FLNFpCMHBLbE4tUUhWcTBXRzJhWVpPZFI1SzBmdGNFYVc3anZhNHA5b1pRUzEzTFhVa2NzNHZMeWhvUlhxaFExdjJRdWhTdW1UdkZqRUV1QjlVaFdXemdRc2dILWpuMTZmTG5fbkJZRDZrNENaSE1YZkVtQjJOS2Z6eXZ6QnJ1NExJNTlBamFONVQ5V0hxTVgwM0NCMjZCSmxhTmctVUlfNXFoajI4R2FEYldrNEFNVkVjTHdHc29falQtdm85TTdOempoUEtVN3h3a0FTTDQ5UmVmb0NGZU42ZGZmd1dRbVlKNmt5MWtuUVdjT29kd1Y5VWlTb1JJQmNIN3R5b0ZQeEE0UUI2SGZrOTgwUzUyUVZ3T3drcU8zZjhXNlN3Umxxb0pZNjRlV3pDYWY2TWhscERPODFWa29SRWtWUUNnT0Z1Sm4wNzNrT0NkQ1hHMFNYblhPX2xaVV9oZ3YyOEdVQWdFaTdrZEhjM19Oa2pQa3VRSmZ6RW9LZWRSd3ZsZHVyM015ZjFjNnU5aWs5NXBYelF1YTd0NzJXMTBsRGZFUWplLUthVWlQSWhzNklLWnlIMENzM0QzTmtYYzdGVElWaTZOZUdFTFR4ekRsS1FvUEtaM2FuanZFNDhmVVJscktRTWM5c3g3R1FqVUhmU3otRlFCdFR1WC1BUU10WmYwekc3NWlXSGRGd1kyU2hqVEpYU0E1blNGcVZdLS0+PC9nPjwvc3ZnPg==;" vertex="1" parent="1">
            <mxGeometry x="-430" y="-310" width="1711" height="1048" as="geometry" />
          </mxCell>
        </UserObject>
      </root>
    </mxGraphModel>
  </diagram>
</mxfile>
